<?xml version="1.0" encoding="UTF-8" standalone="no"?>
<!-- Created with Inkscape (http://www.inkscape.org/) -->

<svg
   xmlns:dc="http://purl.org/dc/elements/1.1/"
   xmlns:cc="http://creativecommons.org/ns#"
   xmlns:rdf="http://www.w3.org/1999/02/22-rdf-syntax-ns#"
   xmlns:svg="http://www.w3.org/2000/svg"
   xmlns="http://www.w3.org/2000/svg"
   xmlns:inkscape="http://www.inkscape.org/namespaces/inkscape"
   version="1.1"
   width="548.75"
   height="221.25"
   id="svg2"
   xml:space="preserve"><metadata
     id="metadata8"><rdf:RDF><cc:Work
         rdf:about=""><dc:format>image/svg+xml</dc:format><dc:type
           rdf:resource="http://purl.org/dc/dcmitype/StillImage" /></cc:Work></rdf:RDF></metadata><defs
     id="defs6" /><g
     transform="matrix(1.25,0,0,-1.25,0,221.25)"
     id="g10"><g
       transform="scale(0.1,0.1)"
       id="g12"><path
         d="m 568.316,915.027 0,1.914 c 0,195.829 149.75,349.419 353.254,349.419 137.27,0 225.58,-57.6 285.1,-139.19 L 1066.52,1018.7 c -38.39,47.03 -82.555,78.71 -146.872,78.71 -94.074,0 -160.308,-80.63 -160.308,-178.543 l 0,-1.926 c 0,-100.789 66.234,-179.5 160.308,-179.5 70.079,0 111.352,32.637 151.672,81.59 l 140.15,-99.832 C 1148.12,631.84 1062.68,567.531 914.855,567.531 c -191.988,0 -346.539,146.867 -346.539,347.496"
         inkscape:connector-curvature="0"
         id="path14"
         style="fill:#f9f9f9;fill-opacity:1;fill-rule:nonzero;stroke:none" /><path
         d="m 2256.93,1088.77 0,-342.7 75.84,0 c 112.31,0 186.22,61.442 186.22,169.914 l 0,1.914 c 0,107.512 -73.91,170.872 -186.22,170.872 l -75.84,0 z m -186.22,164.15 260.14,0 c 239.02,0 378.21,-138.23 378.21,-332.139 l 0,-1.914 c 0,-193.906 -141.11,-337.898 -382.05,-337.898 l -256.3,0 0,671.951"
         inkscape:connector-curvature="0"
         id="path16"
         style="fill:#f9f9f9;fill-opacity:1;fill-rule:nonzero;stroke:none" /><path
         d="m 2810.86,580.969 186.223,0 0,671.953 -186.223,0 0,-671.953 z"
         inkscape:connector-curvature="0"
         id="path18"
         style="fill:#f9f9f9;fill-opacity:1;fill-rule:nonzero;stroke:none" /><path
         d="m 3630.65,915.027 0,1.914 c 0,97.919 -69.11,181.429 -171.82,181.429 -102.71,0 -170.87,-82.55 -170.87,-179.503 l 0,-1.926 c 0,-96.953 70.08,-181.421 172.79,-181.421 101.75,0 169.9,82.554 169.9,179.507 z m -532.75,0 0,1.914 c 0,192.949 155.5,349.419 362.85,349.419 207.35,0 360.93,-154.55 360.93,-347.493 l 0,-1.926 c 0,-192.953 -155.51,-349.41 -362.85,-349.41 -207.35,0 -360.93,154.547 -360.93,347.496"
         inkscape:connector-curvature="0"
         id="path20"
         style="fill:#f9f9f9;fill-opacity:1;fill-rule:nonzero;stroke:none" /><path
         d="m 1753.06,723.398 c -55.47,0 -100.3,43.582 -100.3,97.508 0,53.766 44.83,97.336 100.3,97.336 55.29,0 100.11,-43.57 100.11,-97.336 0,-53.926 -44.82,-97.508 -100.11,-97.508 z m -233.72,331.262 c 0,53.76 44.81,97.34 100.11,97.34 55.3,0 100.12,-43.58 100.12,-97.34 0,-53.76 -44.82,-97.504 -100.12,-97.504 -55.3,0 -100.11,43.744 -100.11,97.504 z m -33.49,-331.262 c -55.31,0 -100.11,43.582 -100.11,97.508 0,53.766 44.8,97.336 100.11,97.336 55.3,0 100.11,-43.57 100.11,-97.336 0,-53.926 -44.81,-97.508 -100.11,-97.508 z m 126.9,545.482 c -199.21,0 -360.62,-156.95 -360.62,-350.638 0,-193.683 161.41,-350.613 360.62,-350.613 199.21,0 360.63,156.93 360.63,350.613 0,193.688 -161.42,350.638 -360.63,350.638"
         inkscape:connector-curvature="0"
         id="path22"
         style="fill:#f14646;fill-opacity:1;fill-rule:evenodd;stroke:none" /></g></g></svg>
