<?xml version="1.0" encoding="utf-8"?>
<!-- Generator: Adobe Illustrator 16.0.4, SVG Export Plug-In . SVG Version: 6.00 Build 0)  -->
<!DOCTYPE svg PUBLIC "-//W3C//DTD SVG 1.1//EN" "http://www.w3.org/Graphics/SVG/1.1/DTD/svg11.dtd">
<svg version="1.1" id="Layer_1" xmlns="http://www.w3.org/2000/svg" xmlns:xlink="http://www.w3.org/1999/xlink" x="0px" y="0px"
	 width="1229px" height="670px" viewBox="-150 59.5 1229 670" enable-background="new -150 59.5 1229 670" xml:space="preserve">
<g id="Layer_2">
	<g>
		<g>
			<line fill="none" stroke="#000000" stroke-width="5" stroke-miterlimit="10" x1="17" y1="324" x2="1014" y2="324"/>
			<g>
				<polygon points="1004,338.526 1058.204,324.01 1004,309.474 				"/>
			</g>
		</g>
	</g>
	<rect x="294.5" y="258" fill="#FFFFFF" stroke="#000000" stroke-width="3" stroke-miterlimit="10" width="75" height="137"/>
	<rect x="793.5" y="221" fill="#FFFFFF" stroke="#000000" stroke-width="3" stroke-miterlimit="10" width="75" height="211"/>
	<circle fill="#3C95A2" stroke="#000000" stroke-width="5" stroke-miterlimit="10" cx="93" cy="324.5" r="29"/>
	<circle fill="#6B63A2" stroke="#000000" stroke-width="5" stroke-miterlimit="10" cx="332.333" cy="359.5" r="29"/>
	<circle fill="#65B9C6" stroke="#000000" stroke-width="5" stroke-miterlimit="10" cx="332.333" cy="293.5" r="29"/>
	<circle fill="#3C95A2" stroke="#000000" stroke-width="5" stroke-miterlimit="10" cx="831" cy="257.5" r="29"/>
	<circle fill="#6B63A2" stroke="#000000" stroke-width="5" stroke-miterlimit="10" cx="830" cy="324.5" r="29"/>
	<circle fill="#B1ADCE" stroke="#000000" stroke-width="5" stroke-miterlimit="10" cx="830" cy="395.5" r="29"/>
	<circle fill="#B1ADCE" stroke="#000000" stroke-width="5" stroke-miterlimit="10" cx="598" cy="324.5" r="29"/>
</g>
<g id="Layer_2_1_">
	<g>
		<g>
			<line fill="none" stroke="#000000" stroke-width="5" stroke-miterlimit="10" x1="18.898" y1="545.5" x2="1015.898" y2="545.5"/>
			<g>
				<polygon points="1005.898,560.026 1060.102,545.51 1005.898,530.974 				"/>
			</g>
		</g>
	</g>
	<circle fill="#FFFFFF" stroke="#000000" stroke-width="5" stroke-miterlimit="10" cx="94.898" cy="546" r="29"/>
	<circle fill="#FFFFFF" stroke="#000000" stroke-width="5" stroke-miterlimit="10" cx="334.231" cy="546" r="29"/>
	<circle fill="#FFFFFF" stroke="#000000" stroke-width="5" stroke-miterlimit="10" cx="831.898" cy="546" r="29"/>
	<circle fill="#FFFFFF" stroke="#000000" stroke-width="5" stroke-miterlimit="10" cx="599.898" cy="546" r="29"/>
</g>
<g>
	<g>
		<line fill="none" stroke="#CCCCCC" stroke-width="5" stroke-miterlimit="10" x1="93.5" y1="445" x2="93.5" y2="480"/>
		<g>
			<polygon fill="#CCCCCC" points="81.035,476 93.499,497.587 105.965,476 			"/>
		</g>
	</g>
</g>
<g>
	<g>
		<line fill="none" stroke="#CCCCCC" stroke-width="5" stroke-miterlimit="10" x1="331.5" y1="445" x2="331.5" y2="480"/>
		<g>
			<polygon fill="#CCCCCC" points="319.035,476 331.499,497.587 343.965,476 			"/>
		</g>
	</g>
</g>
<g>
	<g>
		
			<line fill="none" stroke="#CCCCCC" stroke-width="5" stroke-miterlimit="10" x1="334.231" y1="592.033" x2="334.231" y2="627.033"/>
		<g>
			<polygon fill="#CCCCCC" points="321.766,623.033 334.23,644.62 346.696,623.033 			"/>
		</g>
	</g>
</g>
<g>
	<g>
		<line fill="none" stroke="#CCCCCC" stroke-width="5" stroke-miterlimit="10" x1="597.5" y1="445" x2="597.5" y2="480"/>
		<g>
			<polygon fill="#CCCCCC" points="585.035,476 597.499,497.587 609.965,476 			"/>
		</g>
	</g>
</g>
<g>
	<g>
		<line fill="none" stroke="#CCCCCC" stroke-width="5" stroke-miterlimit="10" x1="829.5" y1="445" x2="829.5" y2="480"/>
		<g>
			<polygon fill="#CCCCCC" points="817.035,476 829.499,497.587 841.965,476 			"/>
		</g>
	</g>
</g>
<g>
	<g>
		<line fill="none" stroke="#CCCCCC" stroke-width="5" stroke-miterlimit="10" x1="93.5" y1="152" x2="93.5" y2="187"/>
		<g>
			<polygon fill="#CCCCCC" points="81.035,183 93.499,204.587 105.965,183 			"/>
		</g>
	</g>
</g>
<g>
	<g>
		<line fill="none" stroke="#CCCCCC" stroke-width="5" stroke-miterlimit="10" x1="331.5" y1="152" x2="331.5" y2="187"/>
		<g>
			<polygon fill="#CCCCCC" points="319.035,183 331.499,204.587 343.965,183 			"/>
		</g>
	</g>
</g>
<g>
	<g>
		<line fill="none" stroke="#CCCCCC" stroke-width="5" stroke-miterlimit="10" x1="597.5" y1="152" x2="597.5" y2="187"/>
		<g>
			<polygon fill="#CCCCCC" points="585.035,183 597.499,204.587 609.965,183 			"/>
		</g>
	</g>
</g>
<g>
	<g>
		<line fill="none" stroke="#CCCCCC" stroke-width="5" stroke-miterlimit="10" x1="829.5" y1="152" x2="829.5" y2="187"/>
		<g>
			<polygon fill="#CCCCCC" points="817.035,183 829.499,204.587 841.965,183 			"/>
		</g>
	</g>
</g>
<text transform="matrix(1 0 0 1 86 556.0264)" font-family="'MyriadPro-Bold'" font-size="32">1</text>
<text transform="matrix(1 0 0 1 590 556.0264)" font-family="'MyriadPro-Bold'" font-size="32">1</text>
<text transform="matrix(1 0 0 1 326 556.0264)" font-family="'MyriadPro-Bold'" font-size="32">2</text>
<text transform="matrix(1 0 0 1 824 556.0264)" font-family="'MyriadPro-Bold'" font-size="32">3</text>
<g id="Layer_2_2_">
	<g>
		<g>
			<line fill="none" stroke="#000000" stroke-width="5" stroke-miterlimit="10" x1="18.898" y1="688.5" x2="1015.898" y2="688.5"/>
			<g>
				<polygon points="1005.898,703.026 1060.102,688.51 1005.898,673.974 				"/>
			</g>
		</g>
	</g>
	<circle fill="#FFFFFF" stroke="#000000" stroke-width="5" stroke-miterlimit="10" cx="334.231" cy="689" r="29"/>
</g>
<text transform="matrix(1 0 0 1 326 699.0264)" font-family="'MyriadPro-Bold'" font-size="32">2</text>
<g>
	<g>
		<line fill="none" stroke="#000000" stroke-width="5" stroke-miterlimit="10" x1="19" y1="105" x2="1016" y2="105"/>
		<g>
			<polygon points="1006,119.026 1060.204,104.51 1006,89.974 			"/>
		</g>
	</g>
</g>
<circle fill="#3C95A2" stroke="#000000" stroke-width="5" stroke-miterlimit="10" cx="95" cy="105" r="29"/>
<circle fill="#6B63A2" stroke="#000000" stroke-width="5" stroke-miterlimit="10" cx="306" cy="105" r="29"/>
<circle fill="#65B9C6" stroke="#000000" stroke-width="5" stroke-miterlimit="10" cx="372" cy="105" r="29"/>
<circle fill="#3C95A2" stroke="#000000" stroke-width="5" stroke-miterlimit="10" cx="766" cy="105" r="29"/>
<circle fill="#6B63A2" stroke="#000000" stroke-width="5" stroke-miterlimit="10" cx="832" cy="105" r="29"/>
<circle fill="#B1ADCE" stroke="#000000" stroke-width="5" stroke-miterlimit="10" cx="909" cy="105" r="29"/>
<circle fill="#B1ADCE" stroke="#000000" stroke-width="5" stroke-miterlimit="10" cx="600" cy="105" r="29"/>
<text transform="matrix(1 0 0 1 -120 221)" font-family="'MyriadPro-Bold'" font-size="32">.buffer</text>
<text transform="matrix(1 0 0 1 -120 438)" font-family="'MyriadPro-Bold'" font-size="32">.map</text>
<text transform="matrix(1 0 0 1 -120 626)" font-family="'MyriadPro-Bold'" font-size="32">.filter</text>
</svg>
