<?xml version="1.0" encoding="utf-8"?>
<!-- Generator: Adobe Illustrator 16.0.4, SVG Export Plug-In . SVG Version: 6.00 Build 0)  -->
<!DOCTYPE svg PUBLIC "-//W3C//DTD SVG 1.1//EN" "http://www.w3.org/Graphics/SVG/1.1/DTD/svg11.dtd">
<svg version="1.1" id="Layer_1" xmlns="http://www.w3.org/2000/svg" xmlns:xlink="http://www.w3.org/1999/xlink" x="0px" y="0px"
	 width="707px" height="486px" viewBox="0 0 707 486" enable-background="new 0 0 707 486" xml:space="preserve">
<rect x="421" y="10" display="none" fill="#FCEE21" width="274" height="27"/>
<rect x="234" y="10" fill="#FCEE21" width="189" height="27"/>
<rect x="73" y="10" display="none" fill="#FCEE21" width="165" height="27"/>
<text transform="matrix(1 0 0 1 12 32)" font-family="'Raleway'" font-size="24">items.filter(”not red”).map(”to square”).reduce(”to Stack”, stack)</text>
<circle fill="#D64541" stroke="#000000" stroke-width="5" stroke-miterlimit="10" cx="39.563" cy="143.562" r="21.378"/>
<circle fill="#65B9C6" stroke="#000000" stroke-width="5" stroke-miterlimit="10" cx="39.563" cy="194.092" r="21.378"/>
<circle fill="#D64541" stroke="#000000" stroke-width="5" stroke-miterlimit="10" cx="39.563" cy="244.622" r="21.378"/>
<circle fill="#3C95A2" stroke="#000000" stroke-width="5" stroke-miterlimit="10" cx="39.563" cy="93.032" r="21.378"/>
<circle fill="#3C95A2" stroke="#000000" stroke-width="5" stroke-miterlimit="10" cx="39.563" cy="346.513" r="21.378"/>
<circle fill="#D64541" stroke="#000000" stroke-width="5" stroke-miterlimit="10" cx="39.563" cy="397.042" r="21.378"/>
<circle fill="#6B63A2" stroke="#000000" stroke-width="5" stroke-miterlimit="10" cx="39.563" cy="447.572" r="21.378"/>
<circle fill="#6B63A2" stroke="#000000" stroke-width="5" stroke-miterlimit="10" cx="39.563" cy="295.982" r="21.377"/>
<circle fill="#65B9C6" stroke="#000000" stroke-width="5" stroke-miterlimit="10" cx="248.426" cy="215.79" r="21.378"/>
<circle fill="#3C95A2" stroke="#000000" stroke-width="5" stroke-miterlimit="10" cx="248.426" cy="164.73" r="21.378"/>
<circle fill="#3C95A2" stroke="#000000" stroke-width="5" stroke-miterlimit="10" cx="248.426" cy="317.21" r="21.378"/>
<circle fill="#6B63A2" stroke="#000000" stroke-width="5" stroke-miterlimit="10" cx="248.426" cy="367.271" r="21.378"/>
<circle fill="#6B63A2" stroke="#000000" stroke-width="5" stroke-miterlimit="10" cx="248.426" cy="266.68" r="21.377"/>
<g>
	<rect x="423.5" y="143.5" fill="#3C95A2" stroke="#000000" stroke-width="5" stroke-miterlimit="10" width="43" height="43"/>
	<rect x="423.5" y="194.5" fill="#65B9C6" stroke="#000000" stroke-width="5" stroke-miterlimit="10" width="43" height="43"/>
	<rect x="423.5" y="245.5" fill="#6B63A2" stroke="#000000" stroke-width="5" stroke-miterlimit="10" width="43" height="43"/>
	<rect x="423.5" y="295.5" fill="#3C95A2" stroke="#000000" stroke-width="5" stroke-miterlimit="10" width="43" height="43"/>
	<rect x="423.5" y="345.5" fill="#6B63A2" stroke="#000000" stroke-width="5" stroke-miterlimit="10" width="43" height="43"/>
</g>
<rect x="630.5" y="138.5" display="none" fill="#3C95A2" stroke="#000000" stroke-width="5" stroke-miterlimit="10" width="43" height="51"/>
<rect x="630.5" y="188.5" display="none" fill="#65B9C6" stroke="#000000" stroke-width="5" stroke-miterlimit="10" width="43" height="51"/>
<rect x="630.5" y="239.5" display="none" fill="#6B63A2" stroke="#000000" stroke-width="5" stroke-miterlimit="10" width="43" height="51"/>
<rect x="630.5" y="290.5" display="none" fill="#3C95A2" stroke="#000000" stroke-width="5" stroke-miterlimit="10" width="43" height="51"/>
<rect x="630.5" y="341.5" display="none" fill="#6B63A2" stroke="#000000" stroke-width="5" stroke-miterlimit="10" width="43" height="51"/>
<g>
	<g>
		<line fill="none" stroke="#CCCCCC" stroke-width="5" stroke-miterlimit="10" x1="286.828" y1="367" x2="384.742" y2="367"/>
		<g>
			<polygon fill="#CCCCCC" points="380.742,379.465 402.328,367.001 380.742,354.535 			"/>
		</g>
	</g>
</g>
</svg>
