<?xml version="1.0" encoding="utf-8"?>
<!-- Generator: Adobe Illustrator 17.1.0, SVG Export Plug-In . SVG Version: 6.00 Build 0)  -->
<!DOCTYPE svg PUBLIC "-//W3C//DTD SVG 1.1//EN" "http://www.w3.org/Graphics/SVG/1.1/DTD/svg11.dtd">
<svg version="1.1"
	 id="svg2" xmlns:cc="http://creativecommons.org/ns#" xmlns:svg="http://www.w3.org/2000/svg" xmlns:rdf="http://www.w3.org/1999/02/22-rdf-syntax-ns#" xmlns:inkscape="http://www.inkscape.org/namespaces/inkscape" xmlns:dc="http://purl.org/dc/elements/1.1/"
	 xmlns="http://www.w3.org/2000/svg" xmlns:xlink="http://www.w3.org/1999/xlink" x="0px" y="0px" viewBox="0 0 548.8 221.2"
	 enable-background="new 0 0 548.8 221.2" xml:space="preserve">
<g id="g10" transform="matrix(1.25,0,0,-1.25,0,221.25)">
	<g id="g12" transform="scale(0.1,0.1)">
		<path id="path14" inkscape:connector-curvature="0" fill="#100F0D" d="M10.3,913.9v2.6c0,263,201.1,469.3,474.4,469.3
			c184.4,0,303-77.4,382.9-186.9l-188.2-145.7c-51.6,63.2-110.9,105.7-197.3,105.7c-126.3,0-215.3-108.3-215.3-239.8v-2.6
			c0-135.4,89-241.1,215.3-241.1c94.1,0,149.5,43.8,203.7,109.6l188.2-134.1C789,533.6,674.3,447.2,475.7,447.2
			C217.9,447.2,10.3,644.5,10.3,913.9"/>
		<path id="path16" inkscape:connector-curvature="0" fill="#100F0D" d="M2278.2,1147.3V687H2380c150.8,0,250.1,82.5,250.1,228.2
			v2.6c0,144.4-99.3,229.5-250.1,229.5H2278.2z M2028.1,1367.7h349.4c321,0,507.9-185.6,507.9-446.1v-2.6
			c0-260.4-189.5-453.8-513.1-453.8h-344.2V1367.7"/>
		<path id="path18" inkscape:connector-curvature="0" fill="#100F0D" d="M3022.1,465.3h250.1v902.5h-250.1V465.3z"/>
		<path id="path20" inkscape:connector-curvature="0" fill="#100F0D" d="M4123.1,913.9v2.6c0,131.5-92.8,243.7-230.8,243.7
			s-229.5-110.9-229.5-241.1v-2.6c0-130.2,94.1-243.7,232.1-243.7C4031.6,672.9,4123.1,783.7,4123.1,913.9z M3407.6,913.9v2.6
			c0,259.1,208.8,469.3,487.3,469.3s484.7-207.6,484.7-466.7v-2.6c0-259.1-208.9-469.3-487.3-469.3
			C3613.9,447.2,3407.6,654.8,3407.6,913.9"/>
		<path id="path22" inkscape:connector-curvature="0" fill="#F14646" d="M1601.5,656.6c-74.5,0-134.7,58.5-134.7,131
			c0,72.2,60.2,130.7,134.7,130.7c74.3,0,134.5-58.5,134.5-130.7C1735.9,715.1,1675.7,656.6,1601.5,656.6z M1287.6,1101.5
			c0,72.2,60.2,130.7,134.5,130.7c74.3,0,134.5-58.5,134.5-130.7s-60.2-131-134.5-131C1347.8,970.5,1287.6,1029.3,1287.6,1101.5z
			 M1242.6,656.6c-74.3,0-134.5,58.5-134.5,131c0,72.2,60.2,130.7,134.5,130.7c74.3,0,134.5-58.5,134.5-130.7
			C1377,715.1,1316.9,656.6,1242.6,656.6z M1413,1389.2c-267.5,0-484.3-210.8-484.3-470.9c0-260.1,216.8-470.9,484.3-470.9
			s484.3,210.8,484.3,470.9C1897.4,1178.4,1680.6,1389.2,1413,1389.2"/>
	</g>
</g>
</svg>
