<?xml version="1.0" encoding="utf-8"?>
<!-- Generator: Adobe Illustrator 16.0.3, SVG Export Plug-In . SVG Version: 6.00 Build 0)  -->
<!DOCTYPE svg PUBLIC "-//W3C//DTD SVG 1.1//EN" "http://www.w3.org/Graphics/SVG/1.1/DTD/svg11.dtd">
<svg version="1.1" xmlns="http://www.w3.org/2000/svg" xmlns:xlink="http://www.w3.org/1999/xlink" x="0px" y="0px" width="340px"
	 height="340px" viewBox="0 0 340 340" enable-background="new 0 0 340 340" xml:space="preserve">
<g id="Version_1">
</g>
<g id="Gr端nhof_1_">
	<g id="Sechseck_Farbe" display="none">
		<path display="inline" fill="#006633" d="M170.58,11.952c3.24,0,6.339,0.717,8.502,1.965l123.055,71.046
			c4.529,2.615,8.503,9.497,8.503,14.727v142.094c0,5.229-3.974,12.111-8.503,14.727l-123.056,71.045
			c-2.163,1.249-5.263,1.965-8.502,1.965c-3.24,0-6.339-0.716-8.502-1.965L39.02,256.509c-4.529-2.615-8.502-9.497-8.502-14.727
			l0-142.092c0-5.23,3.973-12.112,8.502-14.727l123.057-71.046C164.241,12.668,167.339,11.952,170.58,11.952 M170.58,7.952
			c-3.807,0-7.614,0.833-10.502,2.501L37.02,81.499C31.244,84.834,26.518,93.02,26.518,99.69l0,142.092
			c0,6.67,4.726,14.855,10.502,18.19l123.057,71.047c2.888,1.667,6.695,2.501,10.502,2.501s7.614-0.834,10.502-2.501l123.056-71.045
			c5.776-3.335,10.503-11.521,10.503-18.19V99.69c0-6.67-4.727-14.856-10.503-18.191L181.082,10.453
			C178.194,8.786,174.387,7.952,170.58,7.952L170.58,7.952z"/>
	</g>
	<g>
		<defs>
			<path id="Sechseck_1_" d="M169.78,7.216c-3.808,0-7.615,0.834-10.503,2.501L36.22,80.764
				c-5.776,3.335-10.502,11.521-10.502,18.191l0,142.091c0,6.67,4.726,14.855,10.502,18.19l123.057,71.047
				c2.888,1.668,6.695,2.501,10.502,2.501c3.808,0,7.615-0.833,10.503-2.501l123.055-71.045c5.776-3.335,10.503-11.521,10.503-18.19
				V98.955c0-6.67-4.727-14.856-10.503-18.191L180.282,9.718C177.395,8.05,173.587,7.216,169.78,7.216L169.78,7.216z"/>
		</defs>
		<clipPath id="Sechseck_2_">
			<use xlink:href="#Sechseck_1_"  overflow="visible"/>
		</clipPath>
		<rect clip-path="url(#Sechseck_2_)" fill="#0EAC83" stroke="#FFFFFF" stroke-width="6" width="340" height="340"/>
		<use xlink:href="#Sechseck_1_"  overflow="visible" fill="none" stroke="#FFFFFF" stroke-width="6"/>
	</g>
	<g id="Gr端ndungskultur">
		<path fill="#FFFFFF" d="M102.381,213.976c-0.095,0.193-0.183,0.332-0.252,0.439c-0.075,0.095-0.159,0.186-0.246,0.284
			c-0.153,0.139-0.347,0.259-0.569,0.337c-0.229,0.077-0.447,0.116-0.667,0.116c-0.8,0-1.419-0.4-1.843-1.216
			c-0.205-0.375-0.363-0.833-0.473-1.358c-0.11-0.514-0.161-1.073-0.161-1.682v-1.255c0-0.673,0.047-1.324,0.148-1.927
			c0.102-0.604,0.24-1.14,0.434-1.592c0.236-0.587,0.535-1.024,0.893-1.301c0.364-0.275,0.814-0.407,1.358-0.407
			c1.551,0,2.329,1.057,2.329,3.195v0.634h-1.669v-0.284c0-0.156-0.009-0.354-0.026-0.582c-0.018-0.229-0.039-0.414-0.065-0.583
			c-0.058-0.289-0.127-0.5-0.22-0.62c-0.092-0.134-0.209-0.194-0.362-0.194c-0.118,0-0.226,0.039-0.323,0.13
			c-0.09,0.078-0.168,0.181-0.22,0.324c-0.05,0.12-0.083,0.261-0.104,0.395c-0.021,0.147-0.041,0.335-0.058,0.59
			c-0.024,0.159-0.035,0.337-0.039,0.558c-0.005,0.22-0.007,0.423-0.007,0.596v2.371c0,0.472,0.013,0.883,0.045,1.212
			c0.026,0.328,0.066,0.597,0.124,0.804c0.062,0.194,0.135,0.348,0.232,0.434c0.097,0.092,0.213,0.143,0.349,0.143
			c0.248,0,0.451-0.13,0.596-0.377c0.144-0.248,0.213-0.582,0.213-1.004v-0.247c0-0.069,0.002-0.117,0.006-0.155
			c0.004-0.026,0.015-0.07,0.039-0.132c-0.076,0.018-0.127,0.028-0.168,0.033c-0.035,0.004-0.095,0.006-0.188,0.006h-0.323v-1.603
			h2.167v4.861h-0.731l-0.11-0.412c-0.025-0.096-0.043-0.186-0.052-0.246c-0.008-0.061-0.013-0.151-0.013-0.284H102.381z"/>
		<path fill="#FFFFFF" d="M104.582,204.646h2.503c1.774,0,2.659,0.929,2.659,2.783c0,0.849-0.153,1.526-0.459,2.005
			c-0.083,0.134-0.167,0.233-0.258,0.311c-0.093,0.09-0.229,0.177-0.408,0.272l1.125,4.9H107.9l-0.887-4.422h-0.313
			c-0.076,0-0.13-0.003-0.176-0.007c-0.039-0.005-0.093-0.016-0.169-0.033c0.017,0.069,0.028,0.123,0.032,0.162
			c0.004,0.052,0.007,0.109,0.007,0.187v4.113h-1.812V204.646z M106.393,208.712c0,0.077-0.002,0.136-0.007,0.174
			c-0.004,0.052-0.015,0.105-0.032,0.174c0.058-0.018,0.097-0.028,0.124-0.033c0.026-0.004,0.081-0.006,0.15-0.006h0.235
			c0.684,0,1.024-0.545,1.024-1.636c0-0.425-0.091-0.764-0.268-0.979c-0.176-0.228-0.43-0.348-0.756-0.348h-0.235
			c-0.069,0-0.124-0.003-0.15-0.007c-0.026-0.005-0.065-0.016-0.124-0.032c0.017,0.081,0.028,0.136,0.032,0.174
			s0.007,0.097,0.007,0.187V208.712z"/>
		<path fill="#FFFFFF" d="M115.476,212.85c0,0.737-0.209,1.309-0.634,1.715c-0.424,0.418-1.007,0.613-1.752,0.613
			c-0.459,0-0.88-0.088-1.255-0.277c-0.382-0.177-0.662-0.429-0.841-0.744c-0.102-0.177-0.179-0.375-0.227-0.621
			c-0.047-0.245-0.071-0.504-0.071-0.775v-8.113h1.812v7.75c0,0.814,0.224,1.216,0.666,1.216c0.468,0,0.705-0.401,0.705-1.216v-7.75
			h1.598V212.85z M111.22,202.255h1.52v1.526h-1.52V202.255z M113.431,202.255h1.514v1.526h-1.514V202.255z"/>
		<path fill="#FFFFFF" d="M116.727,204.646h1.733l0.938,2.602c0.112,0.332,0.213,0.617,0.297,0.854
			c0.078,0.225,0.155,0.451,0.22,0.666c0.071,0.217,0.136,0.441,0.207,0.667c0.064,0.237,0.151,0.522,0.246,0.854l0.071-0.012
			c-0.026-0.324-0.045-0.604-0.058-0.842c-0.02-0.226-0.028-0.45-0.033-0.667c-0.004-0.215-0.008-0.441-0.013-0.666
			c-0.004-0.236-0.006-0.521-0.006-0.854v-2.602h1.494v10.271h-1.52l-1.041-2.986c-0.136-0.384-0.25-0.71-0.343-0.978
			c-0.086-0.267-0.172-0.521-0.246-0.763c-0.08-0.241-0.157-0.493-0.226-0.757c-0.075-0.263-0.162-0.578-0.272-0.944l-0.064,0.013
			c0.025,0.367,0.045,0.682,0.058,0.945c0.013,0.263,0.021,0.515,0.026,0.756c0.004,0.242,0.009,0.496,0.013,0.764
			s0.006,0.588,0.006,0.964v2.986h-1.487V204.646z"/>
		<path fill="#FFFFFF" d="M123.068,204.646h2.387c1.834,0,2.749,1.27,2.749,3.818v2.095c0,1.57-0.275,2.713-0.821,3.429
			c-0.127,0.177-0.263,0.315-0.407,0.439c-0.145,0.112-0.304,0.216-0.485,0.285c-0.175,0.069-0.371,0.119-0.596,0.148
			c-0.218,0.03-0.47,0.057-0.75,0.057h-2.076V204.646z M124.885,213.069c0,0.078-0.002,0.149-0.007,0.188
			c-0.004,0.038-0.015,0.092-0.032,0.161c0.042-0.018,0.077-0.028,0.11-0.032c0.026-0.005,0.06-0.007,0.104-0.007h0.167
			c0.333,0,0.587-0.159,0.757-0.505c0.119-0.198,0.194-0.454,0.233-0.757c0.045-0.302,0.064-0.739,0.064-1.3v-2.354
			c0-0.264-0.011-0.537-0.032-0.822c-0.022-0.284-0.056-0.515-0.091-0.679c-0.136-0.625-0.472-0.932-1.016-0.932h-0.136
			c-0.034,0-0.061-0.002-0.084-0.007c-0.017-0.004-0.043-0.015-0.077-0.032c0.017,0.069,0.027,0.136,0.032,0.175
			s0.007,0.097,0.007,0.175V213.069z"/>
		<path fill="#FFFFFF" d="M134.055,212.85c0,0.737-0.21,1.309-0.635,1.715c-0.425,0.418-1.007,0.613-1.746,0.613
			c-0.459,0-0.88-0.088-1.261-0.277c-0.382-0.177-0.662-0.429-0.841-0.744c-0.101-0.177-0.172-0.375-0.226-0.621
			c-0.047-0.245-0.071-0.504-0.071-0.775v-8.113h1.817v7.75c0,0.814,0.218,1.216,0.66,1.216c0.474,0,0.705-0.401,0.705-1.216v-7.75
			h1.598V212.85z"/>
		<path fill="#FFFFFF" d="M135.305,204.646h1.733l0.938,2.602c0.118,0.332,0.214,0.617,0.297,0.854
			c0.084,0.225,0.155,0.451,0.227,0.666c0.065,0.217,0.136,0.441,0.201,0.667c0.066,0.237,0.15,0.522,0.252,0.854l0.065-0.012
			c-0.026-0.324-0.046-0.604-0.058-0.842c-0.013-0.226-0.022-0.45-0.026-0.667c-0.004-0.215-0.008-0.441-0.013-0.666
			c-0.005-0.236-0.007-0.521-0.007-0.854v-2.602h1.488v10.271h-1.52l-1.042-2.986c-0.136-0.384-0.25-0.71-0.336-0.978
			c-0.093-0.267-0.179-0.521-0.252-0.763c-0.08-0.241-0.151-0.493-0.226-0.757c-0.069-0.263-0.162-0.578-0.272-0.944l-0.065,0.013
			c0.026,0.367,0.045,0.682,0.059,0.945c0.013,0.263,0.024,0.515,0.031,0.756c0.005,0.242,0.01,0.496,0.014,0.764
			s0.006,0.588,0.006,0.964v2.986h-1.494V204.646z"/>
		<path fill="#FFFFFF" d="M145.697,213.976c-0.102,0.193-0.183,0.332-0.259,0.439c-0.069,0.095-0.153,0.186-0.239,0.284
			c-0.157,0.139-0.347,0.259-0.569,0.337c-0.229,0.077-0.453,0.116-0.667,0.116c-0.807,0-1.419-0.4-1.843-1.216
			c-0.205-0.375-0.369-0.833-0.473-1.358c-0.11-0.514-0.161-1.073-0.161-1.682v-1.255c0-0.673,0.047-1.324,0.149-1.927
			c0.095-0.604,0.239-1.14,0.433-1.592c0.23-0.587,0.528-1.024,0.893-1.301c0.358-0.275,0.815-0.407,1.352-0.407
			c1.555,0,2.335,1.057,2.335,3.195v0.634h-1.669v-0.284c0-0.156-0.009-0.354-0.026-0.582c-0.018-0.229-0.039-0.414-0.071-0.583
			c-0.052-0.289-0.125-0.5-0.213-0.62c-0.093-0.134-0.216-0.194-0.368-0.194c-0.119,0-0.221,0.039-0.317,0.13
			c-0.097,0.078-0.168,0.181-0.22,0.324c-0.049,0.12-0.082,0.261-0.103,0.395c-0.022,0.147-0.047,0.335-0.065,0.59
			c-0.018,0.159-0.028,0.337-0.032,0.558c-0.005,0.22-0.007,0.423-0.007,0.596v2.371c0,0.472,0.013,0.883,0.039,1.212
			c0.032,0.328,0.073,0.597,0.129,0.804c0.063,0.194,0.136,0.348,0.233,0.434c0.097,0.092,0.207,0.143,0.343,0.143
			c0.254,0,0.451-0.13,0.601-0.377c0.141-0.248,0.213-0.582,0.213-1.004v-0.247c0-0.069,0.002-0.117,0.006-0.155
			c0.004-0.026,0.015-0.07,0.033-0.132c-0.069,0.018-0.127,0.028-0.162,0.033c-0.035,0.004-0.101,0.006-0.188,0.006h-0.323v-1.603
			h2.167v4.861h-0.731l-0.11-0.412c-0.026-0.096-0.043-0.186-0.059-0.246c-0.008-0.061-0.013-0.151-0.013-0.284H145.697z"/>
		<path fill="#FFFFFF" d="M150.834,207.456c-0.018-0.522-0.08-0.906-0.194-1.126c-0.114-0.207-0.304-0.324-0.576-0.324
			c-0.22,0-0.395,0.093-0.53,0.253c-0.136,0.173-0.2,0.395-0.2,0.653c0,0.289,0.082,0.553,0.253,0.789
			c0.246,0.323,0.532,0.634,0.857,0.943l0.409,0.351l0.409,0.361l0.396,0.35c0.342,0.298,0.612,0.684,0.812,1.132
			c0.193,0.462,0.292,0.951,0.292,1.456c0,0.439-0.067,0.827-0.194,1.177c-0.127,0.362-0.304,0.664-0.53,0.918
			c-0.233,0.255-0.511,0.44-0.834,0.582c-0.33,0.131-0.688,0.194-1.086,0.194c-0.807,0-1.43-0.241-1.876-0.75
			c-0.446-0.509-0.672-1.229-0.672-2.147v-0.284h1.733c0.009,0.307,0.035,0.563,0.065,0.77c0.03,0.207,0.076,0.361,0.144,0.491
			c0.061,0.116,0.143,0.198,0.241,0.259c0.091,0.048,0.213,0.071,0.358,0.071c0.265,0,0.471-0.102,0.626-0.278
			c0.16-0.189,0.234-0.434,0.234-0.73c0-0.28-0.095-0.559-0.278-0.834c-0.183-0.276-0.496-0.611-0.938-1.003
			c-0.304-0.263-0.542-0.479-0.73-0.635c-0.184-0.168-0.331-0.298-0.44-0.413c-0.104-0.104-0.194-0.209-0.259-0.291
			c-0.071-0.083-0.139-0.175-0.214-0.292c-0.323-0.474-0.485-1.078-0.485-1.811c0-0.509,0.054-0.922,0.167-1.262
			c0.113-0.327,0.298-0.622,0.559-0.886c0.229-0.236,0.499-0.41,0.803-0.543c0.311-0.121,0.634-0.182,0.975-0.182
			c0.722,0,1.293,0.251,1.714,0.738c0.421,0.5,0.634,1.168,0.634,2.018v0.285H150.834z"/>
		<path fill="#FFFFFF" d="M153.682,204.646h1.817v2.227c0,0.289-0.002,0.535-0.007,0.737s-0.009,0.388-0.013,0.582
			c-0.004,0.194-0.013,0.382-0.026,0.589c-0.019,0.207-0.038,0.455-0.064,0.743l0.071,0.013c0.077-0.288,0.15-0.535,0.207-0.743
			c0.057-0.207,0.119-0.393,0.175-0.582c0.063-0.189,0.127-0.375,0.207-0.582c0.073-0.207,0.168-0.459,0.278-0.757l0.808-2.227
			h1.708l-1.41,3.339l1.591,6.933h-1.74l-0.485-2.314c-0.063-0.289-0.114-0.521-0.148-0.725c-0.035-0.202-0.073-0.379-0.104-0.556
			s-0.058-0.347-0.084-0.537c-0.032-0.189-0.063-0.407-0.097-0.68h-0.053c-0.041,0.131-0.071,0.251-0.096,0.337
			c-0.026,0.086-0.058,0.171-0.084,0.266c-0.025,0.081-0.056,0.166-0.09,0.265c-0.042,0.086-0.084,0.19-0.136,0.324l-0.407,0.97
			v2.65h-1.817V204.646z"/>
		<path fill="#FFFFFF" d="M164.556,212.85c0,0.737-0.209,1.309-0.634,1.715c-0.425,0.418-1.007,0.613-1.746,0.613
			c-0.466,0-0.886-0.088-1.261-0.277c-0.382-0.177-0.662-0.429-0.841-0.744c-0.101-0.177-0.172-0.375-0.226-0.621
			c-0.048-0.245-0.071-0.504-0.071-0.775v-8.113h1.817v7.75c0,0.814,0.218,1.216,0.66,1.216c0.471,0,0.705-0.401,0.705-1.216v-7.75
			h1.598V212.85z"/>
		<path fill="#FFFFFF" d="M165.813,204.646h1.818v8.564c0,0.079-0.002,0.137-0.006,0.176c-0.005,0.039-0.016,0.098-0.033,0.175
			c0.069-0.018,0.129-0.028,0.168-0.032c0.039-0.005,0.102-0.007,0.181-0.007h2.116v1.396h-4.244V204.646z"/>
		<path fill="#FFFFFF" d="M169.765,204.646h5.162v1.386h-1.358c-0.078,0-0.136-0.002-0.175-0.007
			c-0.039-0.004-0.105-0.015-0.175-0.032c0.018,0.069,0.028,0.136,0.032,0.175c0.005,0.039,0.007,0.097,0.007,0.175v8.575h-1.812
			v-8.575c0-0.078,0.002-0.136,0.007-0.175c0.004-0.039,0.015-0.105,0.032-0.175c-0.068,0.018-0.122,0.028-0.174,0.032
			c-0.039,0.005-0.098,0.007-0.175,0.007h-1.372V204.646z"/>
		<path fill="#FFFFFF" d="M180.529,212.85c0,0.737-0.216,1.309-0.647,1.715c-0.418,0.418-1,0.613-1.746,0.613
			c-0.452,0-0.879-0.088-1.255-0.277c-0.375-0.177-0.655-0.429-0.841-0.744c-0.095-0.177-0.179-0.375-0.227-0.621
			c-0.048-0.245-0.07-0.504-0.07-0.775v-8.113h1.811v7.75c0,0.814,0.225,1.216,0.673,1.216c0.461,0,0.698-0.401,0.698-1.216v-7.75
			h1.604V212.85z"/>
		<path fill="#FFFFFF" d="M181.768,204.646h2.509c1.769,0,2.652,0.929,2.652,2.783c0,0.849-0.146,1.526-0.453,2.005
			c-0.09,0.134-0.172,0.233-0.259,0.311c-0.099,0.09-0.229,0.177-0.413,0.272l1.125,4.9h-1.837l-0.888-4.422h-0.326
			c-0.068,0-0.123-0.003-0.163-0.007c-0.039-0.005-0.093-0.016-0.175-0.033c0.017,0.069,0.027,0.123,0.032,0.162
			c0.004,0.052,0.007,0.109,0.007,0.187v4.113h-1.812V204.646z M183.579,208.712c0,0.077-0.003,0.136-0.007,0.174
			c-0.005,0.052-0.016,0.105-0.032,0.174c0.052-0.018,0.103-0.028,0.129-0.033c0.026-0.004,0.075-0.006,0.145-0.006h0.235
			c0.678,0,1.03-0.545,1.03-1.636c0-0.425-0.099-0.764-0.268-0.979c-0.183-0.228-0.437-0.348-0.763-0.348h-0.235
			c-0.069,0-0.118-0.003-0.145-0.007c-0.026-0.005-0.077-0.016-0.129-0.032c0.017,0.081,0.027,0.136,0.032,0.174
			c0.004,0.038,0.007,0.097,0.007,0.187V208.712z"/>
		<path fill="#FFFFFF" d="M196.954,214.918c-0.189,0-0.367-0.024-0.506-0.051c-0.149-0.024-0.279-0.07-0.412-0.135
			c-0.121-0.065-0.25-0.164-0.363-0.272c-0.124-0.108-0.25-0.261-0.4-0.445c-0.521,0.798-1.208,1.202-2.03,1.202
			c-0.342,0-0.654-0.073-0.939-0.193c-0.284-0.134-0.532-0.305-0.743-0.537c-0.198-0.232-0.366-0.507-0.479-0.821
			c-0.125-0.315-0.181-0.66-0.181-1.048c0-1.049,0.518-2.174,1.539-3.363c-0.276-0.615-0.472-1.124-0.602-1.533
			c-0.116-0.397-0.175-0.757-0.175-1.093c0-0.324,0.057-0.628,0.168-0.913c0.125-0.283,0.278-0.533,0.485-0.737
			c0.206-0.216,0.446-0.388,0.718-0.505c0.26-0.128,0.564-0.187,0.88-0.187c0.289,0,0.554,0.05,0.783,0.161
			c0.241,0.1,0.45,0.248,0.626,0.421c0.165,0.186,0.305,0.407,0.396,0.666s0.136,0.528,0.136,0.848c0,0.505-0.116,0.987-0.362,1.436
			c-0.245,0.436-0.639,0.906-1.19,1.397l0.506,0.905c0.06,0.104,0.109,0.191,0.148,0.278c0.039,0.073,0.086,0.142,0.115,0.207
			c0.03,0.077,0.063,0.143,0.098,0.206c0.034,0.065,0.073,0.162,0.118,0.266c0.045-0.111,0.073-0.215,0.095-0.285
			c0.021-0.068,0.05-0.193,0.085-0.349c0.025-0.125,0.043-0.206,0.052-0.259c0.009-0.052,0.018-0.097,0.026-0.148
			c0.008-0.038,0.017-0.086,0.024-0.143c0.01-0.056,0.039-0.161,0.065-0.291c0-0.018,0.002-0.039,0.006-0.065
			c0.005-0.024,0.011-0.072,0.02-0.115l1.242,0.181c-0.018,0.263-0.046,0.518-0.084,0.763c-0.039,0.233-0.099,0.478-0.155,0.719
			s-0.125,0.486-0.207,0.736c-0.096,0.25-0.188,0.499-0.291,0.771c0.095,0.134,0.179,0.234,0.252,0.317
			c0.087,0.095,0.156,0.159,0.22,0.206c0.065,0.048,0.147,0.095,0.22,0.117c0.074,0.021,0.171,0.037,0.266,0.045v1.642H196.954z
			 M193.797,211.802c-0.076-0.15-0.142-0.265-0.193-0.368c-0.064-0.091-0.111-0.175-0.155-0.266
			c-0.043-0.078-0.086-0.159-0.13-0.248c-0.055-0.097-0.107-0.2-0.168-0.334c-0.095,0.186-0.185,0.347-0.245,0.472
			c-0.061,0.126-0.108,0.255-0.143,0.362c-0.047,0.121-0.07,0.225-0.084,0.324c-0.013,0.111-0.02,0.227-0.02,0.368
			c0,0.401,0.095,0.727,0.259,0.977c0.177,0.25,0.405,0.369,0.686,0.369s0.569-0.159,0.867-0.492L193.797,211.802z M193.668,208.102
			c0.264-0.326,0.442-0.591,0.563-0.828c0.107-0.236,0.161-0.474,0.161-0.711c0-0.254-0.057-0.453-0.168-0.62
			c-0.125-0.169-0.268-0.246-0.452-0.246c-0.174,0-0.322,0.066-0.422,0.213c-0.111,0.134-0.161,0.33-0.161,0.575
			c0,0.271,0.048,0.557,0.155,0.854l0.013,0.064c0.026,0.062,0.059,0.146,0.098,0.233S193.561,207.882,193.668,208.102z"/>
		<path fill="#FFFFFF" d="M206.217,211.53c0,0.646-0.05,1.18-0.162,1.584c-0.099,0.419-0.282,0.787-0.537,1.12
			c-0.215,0.306-0.482,0.539-0.789,0.698c-0.318,0.146-0.655,0.22-1.021,0.22c-0.866,0-1.522-0.382-1.979-1.157
			c-0.457-0.764-0.673-1.888-0.673-3.37v-1.371c0-0.824,0.072-1.578,0.214-2.252c0.155-0.686,0.364-1.194,0.628-1.564
			c0.47-0.664,1.116-0.997,1.901-0.997c0.422,0,0.796,0.094,1.132,0.291c0.336,0.187,0.597,0.455,0.783,0.809
			c0.149,0.264,0.261,0.601,0.342,1.01c0.096,0.423,0.137,0.841,0.137,1.28v0.298h-1.733v-0.518c0-0.621-0.061-1.065-0.156-1.319
			c-0.094-0.255-0.271-0.375-0.517-0.375c-0.112,0-0.224,0.028-0.312,0.084c-0.085,0.056-0.15,0.148-0.206,0.252
			c-0.053,0.151-0.091,0.3-0.116,0.472c-0.026,0.16-0.048,0.417-0.065,0.757c-0.018,0.178-0.028,0.36-0.032,0.537
			c-0.005,0.19-0.007,0.356-0.007,0.485v2.342c0,0.229,0.007,0.484,0.02,0.77c0.014,0.284,0.033,0.559,0.059,0.821
			c0.052,0.655,0.276,0.983,0.66,0.983c0.254,0,0.456-0.116,0.595-0.361c0.133-0.237,0.194-0.738,0.194-1.489v-0.518h1.643V211.53z"
			/>
		<path fill="#FFFFFF" d="M207.104,209.163c0-0.409,0.02-0.821,0.059-1.209c0.039-0.39,0.096-0.762,0.181-1.094
			c0.074-0.332,0.163-0.632,0.278-0.899c0.104-0.267,0.233-0.489,0.363-0.653c0.236-0.298,0.517-0.526,0.84-0.686
			c0.323-0.146,0.682-0.22,1.087-0.22c0.444,0,0.858,0.095,1.216,0.297c0.358,0.19,0.651,0.479,0.88,0.867
			c0.104,0.173,0.209,0.396,0.292,0.659c0.081,0.264,0.163,0.553,0.22,0.867c0.056,0.315,0.101,0.646,0.135,1.009
			c0.035,0.35,0.065,0.703,0.065,1.062v1.187c0,0.85-0.085,1.623-0.227,2.313c-0.156,0.677-0.353,1.2-0.615,1.559
			c-0.465,0.622-1.12,0.932-1.979,0.932c-0.518,0-0.946-0.095-1.274-0.298c-0.328-0.189-0.609-0.505-0.848-0.944
			c-0.444-0.857-0.673-2.044-0.673-3.561V209.163z M210.636,208.567c0-0.306-0.007-0.601-0.02-0.886
			c-0.013-0.284-0.032-0.537-0.058-0.744c-0.078-0.643-0.303-0.957-0.66-0.957c-0.264,0-0.453,0.201-0.557,0.589
			c-0.116,0.401-0.168,1.063-0.168,1.998v2.394c0,0.936,0.054,1.597,0.174,1.992c0.108,0.384,0.305,0.582,0.576,0.582
			c0.121,0,0.237-0.057,0.324-0.148c0.085-0.091,0.157-0.246,0.226-0.44c0.057-0.206,0.097-0.472,0.123-0.795
			c0.025-0.324,0.039-0.729,0.039-1.19V208.567z"/>
		<path fill="#FFFFFF" d="M213.686,209.861h2.575v1.565h-2.575V209.861z"/>
		<path fill="#FFFFFF" d="M218.422,204.646l0.31,3.081c0.035,0.405,0.063,0.741,0.085,1.021c0.021,0.279,0.041,0.549,0.059,0.808
			c0.017,0.259,0.032,0.528,0.045,0.809c0.014,0.281,0.028,0.613,0.057,0.997h0.079c0.034-0.384,0.064-0.716,0.091-0.997
			c0.026-0.28,0.053-0.55,0.083-0.809c0.043-0.259,0.078-0.528,0.117-0.808c0.039-0.28,0.089-0.616,0.148-1.021l0.467-3.081h1.707
			l0.414,3.081c0.064,0.405,0.107,0.741,0.143,1.021c0.033,0.279,0.063,0.549,0.09,0.808s0.052,0.528,0.091,0.809
			c0.025,0.281,0.052,0.613,0.078,0.997h0.077c0.025-0.393,0.049-0.742,0.071-1.013c0.021-0.28,0.056-0.547,0.077-0.806
			s0.048-0.526,0.077-0.801c0.03-0.276,0.071-0.61,0.124-1.016l0.4-3.081h1.346l-1.385,10.271h-1.708l-0.465-3.298
			c-0.061-0.439-0.11-0.8-0.161-1.093c-0.039-0.292-0.071-0.573-0.098-0.841c-0.026-0.267-0.052-0.545-0.078-0.834
			s-0.051-0.638-0.09-1.049h-0.091c-0.035,0.411-0.065,0.76-0.091,1.049s-0.054,0.569-0.084,0.841
			c-0.043,0.271-0.077,0.557-0.116,0.854c-0.039,0.298-0.088,0.652-0.148,1.073l-0.505,3.298h-1.72l-1.204-10.271H218.422z"/>
		<path fill="#FFFFFF" d="M225.163,209.163c0-0.409,0.02-0.821,0.059-1.209c0.052-0.39,0.106-0.762,0.181-1.094
			c0.073-0.332,0.174-0.632,0.278-0.899c0.104-0.267,0.232-0.489,0.362-0.653c0.237-0.298,0.518-0.526,0.84-0.686
			c0.324-0.146,0.695-0.22,1.087-0.22c0.457,0,0.858,0.095,1.217,0.297c0.37,0.19,0.664,0.479,0.88,0.867
			c0.115,0.173,0.209,0.396,0.291,0.659c0.094,0.264,0.163,0.553,0.22,0.867c0.056,0.315,0.113,0.646,0.148,1.009
			c0.034,0.35,0.052,0.703,0.052,1.062v1.187c0,0.85-0.071,1.623-0.227,2.313c-0.143,0.677-0.352,1.2-0.614,1.559
			c-0.466,0.622-1.121,0.932-1.979,0.932c-0.518,0-0.934-0.095-1.262-0.298c-0.341-0.189-0.623-0.505-0.848-0.944
			c-0.456-0.857-0.685-2.044-0.685-3.561V209.163z M228.707,208.567c0-0.306-0.006-0.601-0.02-0.886
			c-0.013-0.284-0.045-0.537-0.071-0.744c-0.076-0.643-0.301-0.957-0.659-0.957c-0.263,0-0.452,0.201-0.557,0.589
			c-0.103,0.401-0.155,1.063-0.155,1.998v2.394c0,0.936,0.055,1.597,0.162,1.992c0.109,0.384,0.305,0.582,0.576,0.582
			c0.133,0,0.236-0.057,0.323-0.148c0.099-0.091,0.17-0.246,0.227-0.44c0.057-0.206,0.097-0.472,0.122-0.795
			c0.039-0.324,0.052-0.729,0.052-1.19V208.567z"/>
		<path fill="#FFFFFF" d="M231.862,204.646h2.498c1.779,0,2.663,0.929,2.663,2.783c0,0.849-0.159,1.526-0.466,2.005
			c-0.076,0.134-0.159,0.233-0.258,0.311c-0.086,0.09-0.229,0.177-0.401,0.272l1.125,4.9h-1.849l-0.888-4.422h-0.313
			c-0.069,0-0.124-0.003-0.163-0.007c-0.052-0.005-0.106-0.016-0.176-0.033c0.018,0.069,0.028,0.123,0.032,0.162
			c0.005,0.052,0.007,0.109,0.007,0.187v4.113h-1.812V204.646z M233.674,208.712c0,0.077-0.002,0.136-0.007,0.174
			c-0.004,0.052-0.015,0.105-0.032,0.174c0.052-0.018,0.091-0.028,0.117-0.033c0.026-0.004,0.087-0.006,0.157-0.006h0.234
			c0.678,0,1.018-0.545,1.018-1.636c0-0.425-0.085-0.764-0.268-0.979c-0.17-0.228-0.425-0.348-0.75-0.348h-0.234
			c-0.07,0-0.131-0.003-0.157-0.007c-0.026-0.005-0.065-0.016-0.117-0.032c0.018,0.081,0.028,0.136,0.032,0.174
			c0.005,0.038,0.007,0.097,0.007,0.187V208.712z"/>
		<path fill="#FFFFFF" d="M237.996,204.646h1.823v2.227c0,0.289-0.003,0.535-0.007,0.737c-0.005,0.202-0.009,0.388-0.013,0.582
			s-0.024,0.382-0.038,0.589c-0.013,0.207-0.032,0.455-0.059,0.743l0.065,0.013c0.089-0.288,0.156-0.535,0.213-0.743
			c0.057-0.207,0.124-0.393,0.181-0.582s0.121-0.375,0.207-0.582c0.073-0.207,0.162-0.459,0.271-0.757l0.81-2.227h1.708l-1.41,3.339
			l1.592,6.933h-1.734l-0.492-2.314c-0.06-0.289-0.107-0.521-0.142-0.725c-0.036-0.202-0.08-0.379-0.11-0.556
			s-0.058-0.347-0.083-0.537c-0.026-0.189-0.057-0.407-0.091-0.68h-0.065c-0.034,0.131-0.064,0.251-0.09,0.337
			c-0.026,0.086-0.052,0.171-0.078,0.266c-0.025,0.081-0.057,0.166-0.091,0.265c-0.048,0.086-0.09,0.19-0.142,0.324l-0.401,0.97
			v2.65h-1.823V204.646z"/>
		<path fill="#FFFFFF" d="M244.193,204.646h1.812v10.271h-1.812V204.646z"/>
		<path fill="#FFFFFF" d="M247.276,204.646h1.732l0.933,2.602c0.124,0.332,0.22,0.617,0.297,0.854
			c0.078,0.225,0.162,0.451,0.227,0.666c0.064,0.217,0.13,0.441,0.207,0.667c0.064,0.237,0.145,0.522,0.252,0.854l0.064-0.012
			c-0.025-0.324-0.045-0.604-0.058-0.842c-0.013-0.226-0.033-0.45-0.039-0.667c-0.004-0.215-0.008-0.441-0.013-0.666
			c-0.004-0.236-0.006-0.521-0.006-0.854v-2.602h1.5v10.271h-1.526l-1.035-2.986c-0.142-0.384-0.25-0.71-0.35-0.978
			c-0.086-0.267-0.166-0.521-0.239-0.763c-0.086-0.241-0.157-0.493-0.227-0.757c-0.068-0.263-0.168-0.578-0.271-0.944l-0.064,0.013
			c0.025,0.367,0.045,0.682,0.058,0.945c0.014,0.263,0.021,0.515,0.026,0.756c0.004,0.242,0.009,0.496,0.013,0.764
			c0.005,0.268,0.007,0.588,0.007,0.964v2.986h-1.487V204.646z"/>
		<path fill="#FFFFFF" d="M257.661,213.976c-0.095,0.193-0.177,0.332-0.259,0.439c-0.069,0.095-0.146,0.186-0.245,0.284
			c-0.146,0.139-0.341,0.259-0.569,0.337c-0.216,0.077-0.44,0.116-0.66,0.116c-0.807,0-1.418-0.4-1.837-1.216
			c-0.211-0.375-0.375-0.833-0.479-1.358c-0.104-0.514-0.168-1.073-0.168-1.682v-1.255c0-0.673,0.061-1.324,0.155-1.927
			c0.095-0.604,0.245-1.14,0.427-1.592c0.237-0.587,0.534-1.024,0.905-1.301c0.358-0.275,0.803-0.407,1.346-0.407
			c1.561,0,2.341,1.057,2.341,3.195v0.634h-1.668v-0.284c0-0.156-0.009-0.354-0.026-0.582s-0.052-0.414-0.078-0.583
			c-0.051-0.289-0.12-0.5-0.207-0.62c-0.098-0.134-0.215-0.194-0.374-0.194c-0.112,0-0.214,0.039-0.317,0.13
			c-0.091,0.078-0.161,0.181-0.226,0.324c-0.044,0.12-0.076,0.261-0.098,0.395c-0.022,0.147-0.041,0.335-0.059,0.59
			c-0.017,0.159-0.027,0.337-0.031,0.558c-0.005,0.22-0.007,0.423-0.007,0.596v2.371c0,0.472,0.013,0.883,0.038,1.212
			c0.025,0.328,0.066,0.597,0.123,0.804c0.068,0.194,0.142,0.348,0.233,0.434c0.091,0.092,0.213,0.143,0.343,0.143
			c0.254,0,0.457-0.13,0.595-0.377c0.151-0.248,0.22-0.582,0.22-1.004v-0.247c0-0.069,0.002-0.117,0.006-0.155
			c0.005-0.026,0.016-0.07,0.033-0.132c-0.068,0.018-0.121,0.028-0.155,0.033c-0.035,0.004-0.108,0.006-0.193,0.006h-0.324v-1.603
			h2.173v4.861h-0.737l-0.103-0.412c-0.039-0.096-0.057-0.186-0.065-0.246c-0.008-0.061-0.013-0.151-0.013-0.284H257.661z"/>
	</g>
	<g id="Gr端nhof">
		<path fill="#FFFFFF" d="M137.771,154.062c0.924,0,1.717-0.142,2.367-0.427c0.656-0.286,1.192-0.639,1.626-1.067
			c0.422-0.427,0.758-0.891,0.992-1.392c0.239-0.502,0.416-0.981,0.536-1.443c0.12-0.461,0.194-0.867,0.217-1.215
			c0.022-0.341,0.034-0.565,0.034-0.656c0-1.711-0.444-3.017-1.334-3.924c-0.896-0.901-2.174-1.351-3.833-1.351
			c-0.998,0-1.854,0.176-2.567,0.535c-0.713,0.355-1.295,0.816-1.751,1.387c-0.451,0.57-0.781,1.232-0.998,1.979
			c-0.211,0.747-0.32,1.517-0.32,2.298c0,1.876,0.456,3.229,1.375,4.05C135.026,153.651,136.248,154.062,137.771,154.062z"/>
		<path fill="#FFFFFF" d="M154.413,154.062c0.953,0,1.756-0.142,2.407-0.427c0.656-0.286,1.199-0.639,1.62-1.067
			c0.434-0.427,0.766-0.891,1.004-1.392c0.234-0.502,0.406-0.981,0.513-1.443c0.109-0.461,0.172-0.867,0.198-1.215
			c0.025-0.341,0.037-0.565,0.037-0.656c0-1.711-0.439-3.017-1.318-3.924c-0.884-0.901-2.167-1.351-3.855-1.351
			c-0.992,0-1.842,0.176-2.543,0.535c-0.702,0.355-1.284,0.816-1.751,1.387c-0.462,0.57-0.798,1.232-1.015,1.979
			c-0.21,0.747-0.319,1.517-0.319,2.298c0,1.876,0.467,3.229,1.409,4.05C151.733,153.651,152.942,154.062,154.413,154.062z"/>
		<path fill="#FFFFFF" d="M296.952,167.475c-1.072,1.048-2.327,1.959-3.776,2.745c-1.244,0.684-2.761,1.304-4.563,1.862
			c-1.813,0.558-3.889,0.836-6.239,0.836c-0.256,0-0.475-0.023-0.646-0.074c-0.185-0.05-0.36-0.104-0.518-0.177
			c-0.173-0.06-0.349-0.114-0.557-0.164s-0.475-0.087-0.803-0.087c-0.277,0-0.541,0.042-0.793,0.102
			c-0.252,0.061-0.623,0.201-1.127,0.4l0.081-0.568c1.511-1.874,2.994-3.884,4.449-6.03c1.454-2.146,2.842-4.327,4.168-6.548
			c1.313-2.214,2.538-4.44,3.653-6.666c1.101-2.231,2.075-4.378,2.895-6.445c0.822-2.061,1.455-4.003,1.899-5.813
			c0.457-1.816,0.688-3.422,0.688-4.822c0-1.507-0.246-2.774-0.734-3.803c-0.479-1.028-1.1-1.857-1.827-2.479
			c-0.74-0.629-1.555-1.079-2.442-1.358c-0.889-0.277-1.735-0.417-2.544-0.417c-2.083,0-4.004,0.62-5.749,1.846
			c-1.748,1.233-3.324,2.906-4.756,5.021c-1.408,2.119-2.694,4.596-3.835,7.417c-1.142,2.829-2.149,5.839-3.046,9.037
			c-0.884,3.192-1.639,6.475-2.292,9.849c-0.388,2.057-0.735,4.074-1.063,6.072c-1.495-1.777-3.089-3.252-4.812-4.432
			c-1.722-1.175-3.576-2.112-5.549-2.812c-1.974-0.701-4.084-1.056-6.343-1.056c-2.635,0-5.02,0.485-7.13,1.443
			c-2.109,0.964-3.906,2.281-5.367,3.958c-1.46,1.677-2.584,3.651-3.371,5.92c-0.774,2.27-1.176,4.968-1.176,8.105
			c0,0.552,0.023,1.1,0.059,1.647c-0.495,0.532-1.005,1.048-1.519,1.518c-0.547,0.531-1.128,1.044-1.745,1.539
			c-0.615,0.483-1.241,0.927-1.895,1.307c-0.638,0.393-1.276,0.703-1.914,0.945c-0.651,0.229-1.256,0.355-1.826,0.355
			c-0.444,0-0.822-0.288-1.107-0.87c-0.284-0.581-0.421-1.359-0.421-2.323c0-1.777,0.223-3.461,0.656-5.088
			c0.445-1.627,1.294-3.556,2.55-5.772c1.266-2.231,2.122-4.131,2.564-5.693c0.458-1.563,0.687-3.166,0.687-4.81
			c0-0.824-0.114-1.498-0.331-2.021c-0.204-0.517-0.474-0.923-0.792-1.213c-0.333-0.291-0.668-0.495-1.021-0.599
			c-0.354-0.11-0.673-0.163-0.958-0.163c-1.141,0-2.369,0.432-3.657,1.299c-1.301,0.867-2.966,2.289-4.996,4.266
			c-2.03,1.973-3.646,3.723-4.865,5.233c-1.21,1.517-2.306,2.932-3.273,4.256l-0.719-0.508c0.809-1.515,1.739-3.266,2.8-5.258
			s2.14-4.112,3.223-6.359c1.096-2.246,2.168-4.561,3.218-6.951c1.036-2.384,1.979-4.745,2.788-7.072
			c0.821-2.333,1.49-4.572,1.979-6.738c0.502-2.16,0.754-4.124,0.754-5.904c0-1.192-0.092-2.277-0.285-3.246
			c-0.195-0.963-0.531-1.795-1.023-2.489c-0.478-0.694-1.141-1.233-1.949-1.612c-0.82-0.383-1.877-0.577-3.153-0.577
			c-2.479,0-4.673,0.689-6.58,2.072c-1.896,1.383-3.557,3.245-4.975,5.586c-1.415,2.349-2.615,5.062-3.609,8.14
			c-0.981,3.085-1.73,6.333-2.22,9.745c-0.502,3.409-1.006,6.84-1.514,10.286c-0.493,3.446-0.851,6.773-1.032,9.991
			c-0.195,3.217-0.302,6.143-0.348,8.781c-0.008,0.501-0.012,0.967-0.018,1.42c-0.423,0.277-0.852,0.55-1.243,0.805
			c-1.517,0.97-2.315,1.448-2.384,1.425c-0.06-0.021-0.594,0.365-1.644,1.175c-0.218,0.218-0.72,0.47-1.494,0.755
			c-0.524,0.216-0.936,0.317-1.221,0.317c-0.776,0-1.352-0.479-1.729-1.425c-0.364-0.946-0.553-2.168-0.553-3.64
			c0-0.878,0.063-1.836,0.167-2.885c0.101-1.051,0.244-2.099,0.403-3.173c0.172-1.072,0.36-2.28,0.553-3.639
			c0.207-1.352,0.395-2.458,0.555-3.313c0.17-0.855,0.302-1.591,0.416-2.207c0.104-0.622,0.153-1.061,0.153-1.324
			c0-1.757-0.347-3.137-1.041-4.135c-0.71-0.998-1.65-1.494-2.837-1.494c-1.198,0-2.269,0.233-3.252,0.713
			c-0.97,0.474-1.836,1.352-2.6,2.635c-0.16,0.285-0.41,0.724-0.742,1.323c-0.342,0.594-0.707,1.272-1.106,2.048
			c-0.41,0.77-0.838,1.581-1.307,2.424c-0.467,0.844-0.894,1.814-1.302,2.903c-0.402,1.089-0.758,1.928-1.064,2.51
			c-0.308,0.593-0.536,1.01-0.686,1.271h-0.706c0-0.17,0.035-0.496,0.103-0.986c0.072-0.478,0.165-1.22,0.268-2.208
			c0.114-0.986,0.224-1.865,0.336-2.635c0.128-0.775,0.234-1.523,0.351-2.248c0.101-0.724,0.187-1.392,0.259-1.996
			c0.076-0.604,0.109-1.084,0.109-1.443c0-1.306-0.25-2.356-0.752-3.137c-0.498-0.781-1.392-1.175-2.669-1.175
			c-1.283,0-2.298,0.365-3.053,1.101c-0.747,0.742-1.248,1.654-1.511,2.75c-0.337,1.404-0.678,3.085-1.035,5.059
			s-0.676,4.187-0.961,6.65c-0.285,2.465-0.525,4.722-0.712,6.777c-0.007,0.07-0.011,0.137-0.018,0.207
			c-0.048,0.046-0.084,0.077-0.127,0.11c-0.799,0.619-1.638,1.209-2.515,1.769c-0.878,0.562-1.742,1.066-2.585,1.5
			c-0.843,0.448-1.642,0.796-2.39,1.06s-1.38,0.39-1.905,0.39c-0.412,0-0.724-0.108-0.943-0.338
			c-0.213-0.229-0.372-0.55-0.476-0.961c-0.104-0.425-0.164-0.904-0.184-1.466c-0.025-0.561-0.035-1.174-0.035-1.85
			c0-0.407,0.087-1.079,0.255-1.986c0.168-0.908,0.37-1.975,0.592-3.186c0.229-1.21,0.514-2.753,0.856-4.604
			c0.349-1.855,0.642-3.436,0.887-4.746c0.238-1.31,0.383-2.513,0.43-3.621c0.041-1.107,0.06-1.98,0.06-2.619
			c0-0.667-0.341-1.215-1.03-1.643c-0.69-0.428-1.623-0.639-2.791-0.639c-1.031,0-1.958,0.194-2.769,0.587
			c-0.816,0.394-1.279,0.873-1.395,1.443l-3.933,19.432c-0.188,0.985-0.475,1.856-0.858,2.61c-0.377,0.766-0.818,1.405-1.322,1.879
			c-0.475,0.535-0.991,0.948-1.54,1.227c-0.549,0.278-1.082,0.41-1.608,0.41c-0.355,0-0.67-0.094-0.931-0.293
			c-0.259-0.2-0.477-0.447-0.643-0.776c-0.167-0.317-0.292-0.676-0.378-1.075c-0.08-0.411-0.125-0.828-0.125-1.276
			c0-0.022,0.064-0.374,0.188-1.065c0.124-0.679,0.284-1.573,0.48-2.683c0.204-1.109,0.462-2.581,0.797-4.413
			c0.328-1.843,0.627-3.514,0.898-5.011c0.27-1.504,0.539-2.991,0.807-4.47c0.267-1.479,0.503-3.021,0.72-4.623
			c0-0.516-0.274-0.942-0.822-1.292c-0.547-0.344-1.448-0.552-2.709-0.61c-0.759,0.023-1.443,0.222-2.047,0.604
			c-0.611,0.383-1.135,0.868-1.592,1.46c-0.451,0.593-0.838,1.261-1.175,1.996c-0.331,0.736-0.611,1.467-0.839,2.173
			c-0.222,0.719-0.39,1.376-0.503,1.982c-0.113,0.613-0.203,1.09-0.265,1.438c-0.281,2.193-0.572,4.125-0.872,5.822
			c-0.692,0.376-1.41,0.735-2.192,1.058c-1.141,0.48-2.241,0.72-3.314,0.72c-0.376,0-0.742-0.068-1.083-0.217
			c-0.349-0.137-0.657-0.382-0.93-0.725c-0.274-0.354-0.491-0.804-0.662-1.374c-0.165-0.571-0.245-1.29-0.245-2.146
			c0-0.496,0.057-1.118,0.177-1.871c0.12-0.747,0.308-1.705,0.57-2.869c0.263-1.163,0.451-2.11,0.571-2.835
			c0.12-0.724,0.177-1.289,0.177-1.688c0-0.524-0.091-0.994-0.285-1.408c-0.188-0.416-0.445-0.771-0.764-1.056
			c-0.319-0.285-0.696-0.501-1.124-0.656c-0.428-0.156-0.867-0.234-1.318-0.234c-1.307,0-2.464,0.348-3.462,1.049
			c-0.999,0.702-1.888,1.563-2.669,2.589c-0.787,1.021-1.535,2.305-2.248,3.845c-0.712,1.546-1.306,2.795-1.786,3.747h-0.387
			c-0.052-1.215-0.012-2.629,0.102-4.244c0.12-1.614,0.183-2.863,0.183-3.742c0-0.735-0.017-1.317-0.058-1.751
			c-0.034-0.422-0.137-0.752-0.302-0.975c-0.166-0.228-0.423-0.371-0.764-0.428c-0.349-0.063-0.828-0.091-1.443-0.091
			c-0.548,0-1.004,0.029-1.375,0.091c-0.371,0.057-0.679,0.177-0.924,0.353c-0.251,0.177-0.474,0.423-0.662,0.73
			c-0.188,0.308-0.382,0.725-0.57,1.249c-0.309,0.781-0.616,1.785-0.93,2.995c-0.309,1.209-0.673,2.727-1.101,4.546
			c-0.167,0.709-0.311,1.389-0.458,2.061c-1.841,3.302-5.801,7.771-8.089,10.245c-0.058-1.297-0.207-2.501-0.454-3.564
			c-0.326-1.369-0.908-2.524-1.752-3.476c-0.844-0.938-2.008-1.647-3.49-2.134c-1.489-0.487-3.382-0.726-5.687-0.726
			c-0.976,0-1.826,0.114-2.55,0.337s-1.323,0.513-1.802,0.879c-0.474,0.354-0.821,0.757-1.05,1.227
			c-0.228,0.467-0.336,0.94-0.336,1.442s0.119,0.991,0.354,1.493c0.24,0.503,0.595,0.948,1.077,1.324
			c0.475,0.376,1.053,0.685,1.734,0.923c0.682,0.24,1.471,0.354,2.382,0.354c0.497,0,0.967,0.024,1.409,0.086
			c0.446,0.048,0.823,0.175,1.148,0.394c0.322,0.219,0.58,0.547,0.769,0.996c0.189,0.437,0.287,1.038,0.287,1.804
			c0,0.583-0.075,1.22-0.217,1.925c-0.142,0.692-0.308,1.427-0.496,2.179c-2.784,1.956-5.749,3.467-8.915,4.549
			c-3.16,1.081-6.616,1.62-10.369,1.62c-2.02,0-3.839-0.312-5.459-0.938c-1.614-0.639-3.205-1.592-4.773-2.869
			c-1.568-1.289-2.658-2.897-3.263-4.813c-0.604-1.929-0.907-4.188-0.907-6.778c0-3.914,0.411-7.565,1.226-10.967
			c0.821-3.402,1.934-6.513,3.337-9.334c1.398-2.815,3.022-5.324,4.865-7.514c1.842-2.196,3.781-4.044,5.829-5.546
			c2.042-1.508,4.13-2.657,6.257-3.447c2.121-0.797,4.152-1.195,6.074-1.195c1.568,0,2.875,0.59,3.924,1.775
			c1.043,1.179,1.568,2.948,1.568,5.312c0,0.493-0.072,0.976-0.211,1.435c-0.139,0.459-0.283,0.901-0.433,1.327
			c-0.15,0.425-0.295,0.85-0.434,1.275s-0.205,0.862-0.205,1.309c0,0.567,0.085,1.117,0.268,1.65
			c0.177,0.533,0.421,1.009,0.73,1.435c0.308,0.426,0.673,0.766,1.101,1.026s0.896,0.391,1.392,0.391
			c0.645,0,1.317-0.234,2.031-0.696c0.712-0.461,1.454-1.254,2.212-2.373c0.548-0.993,0.94-1.985,1.175-2.971
			c0.239-0.987,0.359-1.98,0.359-2.978c0-2.566-0.343-4.78-1.018-6.634c-0.681-1.854-1.625-3.387-2.825-4.597
			c-1.207-1.212-2.625-2.104-4.254-2.675c-1.635-0.57-3.403-0.855-5.306-0.855c-3.092,0-6.178,0.52-9.251,1.552
			c-3.081,1.032-6.018,2.499-8.824,4.386c-2.807,1.888-5.418,4.169-7.842,6.844c-2.424,2.675-4.529,5.657-6.309,8.95
			c-1.786,3.292-3.184,6.856-4.193,10.694c-1.01,3.839-1.511,7.86-1.511,12.069c0,3.206,0.49,6.27,1.477,9.177
			c0.986,2.91,2.396,5.465,4.227,7.666c1.831,2.19,4.261,3.948,7.29,5.236c3.028,1.3,6.148,1.945,9.354,1.945
			c2.761,0,5.185-0.193,7.272-0.566c2.093-0.372,3.953-0.882,5.584-1.515c1.625-0.644,3.074-1.379,4.346-2.23
			s2.476-1.749,3.616-2.704c-0.512,2.198-1.15,4.392-1.9,6.567c-0.75,2.188-1.581,4.16-2.488,5.919
			c-0.913,1.758-1.874,3.188-2.899,4.288c-1.02,1.098-2.056,1.648-3.115,1.648c-0.938,0-1.875-0.168-2.795-0.491
			c-0.926-0.324-1.824-0.64-2.698-0.945c-0.875-0.309-1.708-0.601-2.501-0.879c-0.786-0.279-1.581-0.347-2.371-0.218
			c-0.698,0-1.292,0.206-1.789,0.605c-0.49,0.411-0.9,0.877-1.223,1.426c-0.33,0.547-0.565,1.112-0.721,1.693
			c-0.162,0.582-0.236,1.056-0.236,1.409c0,0.684,0.199,1.307,0.604,1.83c0.405,0.535,0.93,1.01,1.569,1.408
			c0.645,0.411,1.383,0.724,2.222,0.949c0.838,0.213,1.659,0.437,2.475,0.656c0.816,0.22,1.601,0.357,2.366,0.438
			c0.758,0.068,1.414,0.103,1.956,0.103c2.944,0,5.558-0.563,7.848-1.687c2.295-1.124,4.295-2.639,6.003-4.559
			c1.708-1.919,3.149-4.135,4.322-6.664c1.173-2.532,2.12-5.224,2.832-8.062c0.711-2.838,1.224-5.732,1.549-8.685
			c0.121-1.166,0.217-2.313,0.296-3.447l6.624-5.974c-0.059,0.587-0.123,1.171-0.168,1.733c-0.121,1.392-0.177,2.606-0.177,3.656
			c0,0.946,0.051,1.864,0.16,2.754c0.108,0.903,0.319,1.689,0.639,2.396c0.325,0.695,0.782,1.255,1.375,1.677
			c0.593,0.411,1.38,0.622,2.35,0.622c0.428,0,0.822-0.073,1.181-0.233c0.353-0.148,0.69-0.417,0.998-0.805
			c0.308-0.377,0.61-0.873,0.907-1.478c0.296-0.604,0.61-1.375,0.947-2.298l6.376-17.791h0.57c0.194,1.5,0.445,2.977,0.753,4.436
			c0.308,1.461,0.781,2.784,1.426,3.96c0.639,1.175,1.505,2.134,2.601,2.853c1.095,0.73,2.533,1.089,4.312,1.089
			c0.999,0,1.98-0.154,2.944-0.451c0.697-0.205,1.364-0.472,2.026-0.762c-0.094,1.07-0.145,2.288-0.155,3.634
			c0,1.506,0.153,2.755,0.459,3.77c0.306,1.003,0.727,1.818,1.261,2.434c0.534,0.616,1.143,1.062,1.83,1.323
			c0.687,0.263,1.42,0.388,2.198,0.388c0.954,0,1.936-0.198,2.947-0.58c1.011-0.383,2.01-0.917,2.998-1.605
			c0.989-0.676,1.959-1.48,2.907-2.403c0.953-0.924,1.856-1.943,2.712-3.048c0.235,1.081,0.511,2.066,0.825,2.944
			s0.701,1.625,1.156,2.267c0.46,0.631,0.999,1.127,1.633,1.475c0.628,0.349,1.392,0.529,2.278,0.529
			c0.871,0,1.813-0.13,2.839-0.378c1.02-0.248,2.062-0.574,3.134-0.979c1.067-0.417,2.134-0.885,3.19-1.425
			c1.054-0.54,2.052-1.104,2.993-1.689c0.229-0.147,0.432-0.282,0.651-0.419c0.017,0.18,0.026,0.374,0.047,0.549
			c0.108,0.903,0.319,1.689,0.638,2.396c0.326,0.695,0.782,1.255,1.375,1.677c0.592,0.411,1.379,0.622,2.351,0.622
			c0.785,0,1.476-0.183,2.069-0.536c0.57-0.331,1.107-1.005,1.603-1.997l9.342-18.537h0.57c-0.285,1.905-0.525,3.68-0.719,5.334
			c-0.181,1.643-0.285,3.188-0.285,4.614c0,3.639,0.451,6.393,1.342,8.287c0.888,1.895,1.989,2.835,3.302,2.835
			c1.3,0,2.556-0.194,3.742-0.571c0.442-0.125,1.597-0.592,3.456-1.425c0.726-0.318,2.524-1.237,5.35-2.756
			c0.002,0.009,0,0.017,0.002,0.025c0.067,0.892,0.216,1.692,0.456,2.402c0.238,0.696,0.579,1.261,1.037,1.69
			c0.444,0.419,1.073,0.634,1.848,0.634c0.592,0,1.084-0.131,1.473-0.364c0.375-0.248,0.725-0.619,1.042-1.091
			c0.32-0.483,0.645-1.114,0.989-1.905c0.329-0.79,0.751-1.709,1.276-2.771c1.05-2.134,2.218-4.203,3.508-6.214
			c1.301-2.009,2.55-3.827,3.771-5.428c1.208-1.615,2.298-2.954,3.256-4.002c0.958-1.062,1.648-1.722,2.048-1.982l0.754,0.11
			c-0.072,0.069-0.238,0.334-0.486,0.794c-0.25,0.449-0.541,1.037-0.871,1.764c-0.333,0.714-0.688,1.531-1.079,2.45
			c-0.379,0.914-0.722,1.846-1.03,2.801c-0.309,0.969-0.57,1.92-0.783,2.862c-0.213,0.957-0.314,1.815-0.314,2.575
			c0,1.09,0.151,2.243,0.479,3.476c0.316,1.219,0.782,2.347,1.424,3.369c0.63,1.035,1.44,1.884,2.42,2.548
			c0.981,0.677,2.152,1.009,3.48,1.009c0.855,0,1.751-0.141,2.699-0.41c0.935-0.254,1.869-0.605,2.817-1.014
			c0.935-0.419,1.865-0.885,2.789-1.422c0.936-0.538,1.797-1.07,2.583-1.598c0.798-0.525,1.529-1.013,2.179-1.486
			c0.219-0.146,0.395-0.286,0.588-0.417c0.244,0.472,0.502,0.945,0.789,1.384c0.944,1.484,2.172,2.676,3.654,3.588
			c1.483,0.913,3.268,1.375,5.369,1.375c1.446,0,2.805-0.251,4.094-0.753c1.276-0.489,2.47-1.176,3.541-2.03
			c1.084-0.856,2.055-1.859,2.889-3.023c0.842-1.175,1.561-2.418,2.143-3.754c0.582-1.322,1.033-2.703,1.342-4.128
			c0.307-1.427,0.454-2.841,0.454-4.245c0-1.927-0.163-3.655-0.517-5.184c-0.345-1.535-0.864-2.989-1.547-4.37l0.285-0.394
			c0.855,0.571,1.883,1.278,3.069,2.122c1.185,0.845,2.39,1.871,3.622,3.086c0.594,0.583,1.171,1.143,1.735,1.683
			c-0.353,2.498-0.645,4.929-0.842,7.225c-0.262,2.891-0.494,5.439-0.695,7.635c-0.188,2.208-0.326,3.971-0.383,5.303
			c-0.056,1.331-0.085,2.047-0.085,2.174c0,1.444,0.051,2.939,0.151,4.486c0.104,1.559,0.289,3.077,0.551,4.566
			c0.26,1.503,0.617,2.918,1.082,4.249c0.452,1.343,1.026,2.514,1.718,3.527c0.679,1,1.507,1.802,2.482,2.395
			c0.964,0.591,2.098,0.887,3.392,0.887c1.367,0,2.601-0.273,3.674-0.819c1.086-0.547,2.05-1.258,2.874-2.146
			c0.834-0.888,1.568-1.913,2.188-3.063c0.62-1.15,1.149-2.341,1.591-3.581c0.43-1.229,0.78-2.447,1.056-3.653
			c0.273-1.221,0.488-2.325,0.644-3.313c0.144-0.99,0.245-1.834,0.317-2.528c0.061-0.685,0.092-1.14,0.092-1.355
			c0-1.821-0.262-3.626-0.785-5.426c-0.525-1.787-1.105-3.409-1.737-4.856c-0.731-1.685-1.562-3.301-2.476-4.872
			c1.707-0.068,3.392-0.242,5.08-0.507c1.449-0.229,3.034-0.599,4.746-1.07c1.71-0.484,3.354-1.153,4.916-2.017
			c0.41-0.217,5.783-4.056,6.021-8.593C302.434,163.033,296.952,167.475,296.952,167.475z M207.12,163.721
			c-0.766,1.757-1.462,3.388-2.103,4.882c0.277-2.702,0.672-5.46,1.195-8.282c0.165-1.195,0.353-2.47,0.552-3.825
			c0.188-1.348,0.391-2.724,0.596-4.124c0.193-1.393,0.466-2.794,0.822-4.196c0.342-1.403,0.712-2.754,1.124-4.066
			c1.63-3.847,3.057-6.778,4.278-8.796c1.21-2.018,2.121-3.031,2.738-3.031c0.51,0,0.764,0.905,0.764,2.706
			c0,1.192-0.314,3.035-0.942,5.526c-0.642,2.499-1.652,5.561-3.058,9.2c-0.435,1.066-0.979,2.367-1.629,3.901
			c-0.651,1.535-1.355,3.16-2.087,4.881C208.629,160.219,207.886,161.965,207.12,163.721z M252.604,178.218
			c-0.344,1.768-0.792,3.273-1.362,4.528c-0.571,1.243-1.246,2.282-1.997,3.104c-0.766,0.808-1.553,1.227-2.362,1.227
			c-0.924,0-1.723-0.201-2.384-0.588c-0.661-0.4-1.196-0.912-1.609-1.576c-0.397-0.648-0.694-1.419-0.888-2.298
			c-0.183-0.878-0.285-1.813-0.285-2.817c0-1.974,0.193-3.742,0.57-5.304c0.387-1.575,0.899-3.007,1.573-4.302
			c0.662-1.294,1.438-2.354,2.315-3.188c0.879-0.833,1.802-1.25,2.784-1.25c0.73,0,1.356,0.206,1.882,0.605
			c0.525,0.405,0.959,0.952,1.289,1.643c0.332,0.69,0.582,1.506,0.741,2.441c0.172,0.942,0.252,1.952,0.252,3.045
			C253.124,174.869,252.959,176.45,252.604,178.218z M276.877,160.524c0.165-1.532,0.46-3.309,0.878-5.325
			c0.408-2.016,1.024-4.327,1.851-6.934c0.897-2.847,2.046-5.848,3.447-9.008c0.85-1.918,1.449-3.114,1.809-3.593
			c0.442-0.569,1.317-0.854,2.622-0.854c0.824,0,1.411,0.291,1.761,0.871c0.349,0.581,0.531,1.503,0.531,2.762
			c0,0.899-0.438,2.409-1.305,4.515c-0.865,2.112-1.899,4.304-3.128,6.565c-1.216,2.266-2.637,4.691-4.266,7.276
			c-1.616,2.591-3.197,5.244-4.718,7.971C276.519,163.467,276.696,162.05,276.877,160.524z M278.315,199.426
			c-0.093,1.346-0.252,2.578-0.504,3.708c-0.254,1.128-0.621,2.059-1.113,2.801c-0.494,0.741-1.142,1.105-1.956,1.105
			c-0.266,0-0.523-0.165-0.775-0.484c-0.253-0.32-0.47-1.01-0.677-2.082s-0.367-2.635-0.506-4.712
			c-0.125-2.064-0.188-4.848-0.188-8.338c0-0.502,0.021-1.182,0.068-2.048c0.045-0.867,0.105-1.782,0.184-2.759
			c0.084-0.965,0.18-2.203,0.297-3.729c0.127-1.513,0.216-2.68,0.291-3.502c0.063-0.823,0.152-1.499,0.268-2.044
			c0.127-0.545,0.229-0.816,0.336-0.816c0.287,0,0.599,0.322,0.933,0.967c0.336,0.658,0.781,1.42,1.321,2.31
			c0.531,0.904,0.959,2.228,1.26,3.997c0.301,1.782,0.502,3.362,0.594,4.769c0.091,1.405,0.174,2.72,0.221,3.928
			c0.044,1.21,0.067,2.236,0.067,3.069C278.436,196.797,278.396,198.078,278.315,199.426z"/>
	</g>
	
		<text transform="matrix(1 0 0 1 94.7212 214.4844)" display="none" fill="#FFFFFF" font-family="'HelveticaNeue-Bold'" font-size="17" letter-spacing="1">Gr端ndungskultur</text>
</g>
</svg>
