<?xml version="1.0" encoding="UTF-8" standalone="no"?>
<svg
   xmlns:dc="http://purl.org/dc/elements/1.1/"
   xmlns:cc="http://creativecommons.org/ns#"
   xmlns:rdf="http://www.w3.org/1999/02/22-rdf-syntax-ns#"
   xmlns:svg="http://www.w3.org/2000/svg"
   xmlns="http://www.w3.org/2000/svg"
   viewBox="0 0 554.79999 137.49333"
   height="137.49333"
   width="554.79999"
   xml:space="preserve"
   id="svg2"
   version="1.1"><metadata
     id="metadata8"><rdf:RDF><cc:Work
         rdf:about=""><dc:format>image/svg+xml</dc:format><dc:type
           rdf:resource="http://purl.org/dc/dcmitype/StillImage" /></cc:Work></rdf:RDF></metadata><defs
     id="defs6"><clipPath
       id="clipPath20"
       clipPathUnits="userSpaceOnUse"><path
         id="path18"
         d="M 0,0 H 4160.95 V 1031 H 0 Z" /></clipPath></defs><g
     transform="matrix(1.3333333,0,0,-1.3333333,0,137.49333)"
     id="g10"><g
       transform="scale(0.1)"
       id="g12"><g
         id="g14"><g
           clip-path="url(#clipPath20)"
           id="g16"><path
             id="path22"
             style="fill:#231f20;fill-opacity:1;fill-rule:nonzero;stroke:none"
             d="M 0,378.934 H 132.191 V 798.563 H 0 Z" /><path
             id="path24"
             style="fill:#231f20;fill-opacity:1;fill-rule:nonzero;stroke:none"
             d="m 228.102,798.027 h 131.257 v -52.472 c 42.52,43.437 85.989,60.644 142.996,60.644 90.5,0 142.102,-56.125 142.102,-162.043 V 378.934 H 512.312 v 247.121 c 0,57.918 -17.179,85.996 -58.839,85.996 -40.715,0 -71.516,-27.153 -94.114,-66.074 V 378.934 H 228.102 v 419.093" /><path
             id="path26"
             style="fill:#231f20;fill-opacity:1;fill-rule:nonzero;stroke:none"
             d="M 847.195,591.684 683.367,798.027 h 159.305 l 85.066,-116.75 86.892,116.75 h 159.31 L 1011.95,592.59 1184.83,378.934 H 1022.8 L 931.406,503.91 839.066,378.934 H 679.742 l 167.453,212.75" /><path
             id="path28"
             style="fill:#231f20;fill-opacity:1;fill-rule:nonzero;stroke:none"
             d="m 1230.94,787.156 h 45.27 v -65.152 c 37.12,47.973 81.46,72.406 135.79,72.406 60.63,0 98.62,-24.433 126.7,-83.258 44.34,56.121 89.57,83.258 146.61,83.258 88.71,0 139.4,-59.722 139.4,-166.539 V 378.934 h -46.17 v 227.218 c 0,97.743 -31.66,146.618 -98.67,146.618 -53.39,0 -97.74,-28.954 -129.44,-85.977 V 378.934 h -45.2 v 227.218 c 0,97.743 -32.6,146.618 -99.57,146.618 -53.44,0 -96.88,-28.954 -129.45,-85.977 V 378.934 h -45.27 v 408.222" /><path
             id="path30"
             style="fill:#231f20;fill-opacity:1;fill-rule:nonzero;stroke:none"
             d="m 2138.78,588.93 c -123.11,-1.758 -190.99,-48.871 -190.99,-112.211 0,-41.641 29.83,-67.871 79.69,-67.871 35.24,0 70.56,18.093 111.3,52.492 z M 2014.77,369.922 c -67.88,0 -113.12,43.437 -113.12,105 0,88.691 81.43,143.918 237.13,150.254 v 43.437 c 0,60.641 -27.16,87.774 -91.46,87.774 -41.58,0 -80.51,-17.184 -124.89,-49.77 v 44.356 c 44.38,29.89 85.96,45.257 128.52,45.257 95.93,0 133.03,-43.46 133.03,-138.488 V 444.133 c 0,-18.125 4.6,-26.242 14.55,-26.242 12.63,0 24.39,12.675 46.11,31.687 v -41.68 c -26.3,-24.39 -48.87,-37.078 -66.07,-37.078 -26.24,0 -37.06,14.461 -38.89,47.981 -42.56,-32.602 -79.69,-48.879 -124.91,-48.879" /><path
             id="path32"
             style="fill:#231f20;fill-opacity:1;fill-rule:nonzero;stroke:none"
             d="m 2307.12,378.934 h 46.0977 V 787.157 H 2307.12 Z" /><path
             id="path34"
             style="fill:#231f20;fill-opacity:1;fill-rule:nonzero;stroke:none"
             d="m 2468.19,378.934 h 46.1484 V 988.262 H 2468.19 Z" /><path
             id="path36"
             style="fill:#231f20;fill-opacity:1;fill-rule:evenodd;stroke:none"
             d="M 0.25,0.238281 V 174.988 h 12.3984 v -8.25 c 4.8047,3.594 9.8711,6.27 15.2461,8.02 5.3907,1.707 11.2657,2.566 17.6602,2.566 16.9765,0 30.7305,-5.566 41.2422,-16.679 10.4687,-11.153 15.7621,-25.676 15.7621,-43.641 0,-17.961 -5.2934,-32.5001 -15.7621,-43.6368 C 76.2852,62.2344 62.5312,56.7109 45.5547,56.7109 c -6.5703,0 -12.5078,0.8399 -17.832,2.4883 -5.3438,1.6797 -10.3516,4.3164 -15.0743,7.832 V 0.238281 H 0.25 Z M 12.6484,152.234 V 81.1406 c 4.3047,-4.4531 8.9844,-7.7734 14.0743,-9.8906 5.0898,-2.1406 10.8203,-3.2344 17.2031,-3.2344 13.0469,0 23.6367,4.5352 31.8515,13.5469 8.1915,9.0313 12.2891,20.7425 12.2891,35.1835 0,14.406 -4.0976,26.152 -12.2891,35.188 -8.2148,9.035 -18.8046,13.504 -31.8515,13.504 -6.4414,0 -12.2344,-1.051 -17.2617,-3.192 -5.0313,-2.117 -9.711,-5.461 -14.0157,-10.012 v 0" /><path
             id="path38"
             style="fill:#231f20;fill-opacity:1;fill-rule:nonzero;stroke:none"
             d="M 137.996,58.7617 V 174.988 h 12.938 v -28.687 c 7.234,11.09 13.816,19 19.796,23.687 5.981,4.719 12.184,7.063 18.645,7.063 3.539,0 6.973,-0.703 10.305,-2.141 3.332,-1.441 6.789,-3.68 10.398,-6.695 l -7.066,-12.328 c -3.535,2.843 -6.742,4.914 -9.668,6.25 -2.891,1.386 -5.688,2.062 -8.356,2.062 -5.215,0 -10.523,-2.539 -15.89,-7.566 -5.368,-5.024 -11.442,-13.176 -18.164,-24.399 V 58.7617 h -12.938 v 0" /><path
             id="path40"
             style="fill:#231f20;fill-opacity:1;fill-rule:evenodd;stroke:none"
             d="m 224.254,117.004 c 0,16.863 5.875,31.187 17.633,42.937 11.746,11.77 26.164,17.625 43.129,17.625 16.832,0 31.117,-5.894 42.929,-17.683 11.805,-11.789 17.692,-26.094 17.692,-42.879 0,-7.953 -1.559,-15.727 -4.739,-23.2345 -3.105,-7.4922 -7.562,-14.1133 -13.265,-19.8242 -5.797,-5.793 -12.328,-10.168 -19.563,-13.0859 -7.203,-2.9219 -14.925,-4.4141 -23.054,-4.4141 -16.965,0 -31.383,5.8516 -43.129,17.5859 -11.758,11.6602 -17.633,26.0278 -17.633,42.9728 z m 14.191,-0.258 c 0,-13.523 4.559,-24.9608 13.641,-34.3437 9.109,-9.3945 20.039,-14.0937 32.93,-14.0937 12.765,0 23.683,4.6992 32.664,14.0937 9.004,9.3829 13.496,20.8207 13.496,34.3437 0,13.586 -4.473,25.117 -13.446,34.543 -8.941,9.453 -19.847,14.149 -32.714,14.149 -13.028,0 -24.059,-4.696 -33.09,-14.149 -8.981,-9.426 -13.481,-20.957 -13.481,-34.543 v 0" /><path
             id="path42"
             style="fill:#231f20;fill-opacity:1;fill-rule:nonzero;stroke:none"
             d="M 380.914,58.7617 V 164.199 h -20.086 v 10.789 h 20.086 v 12.871 c 0,16.887 3.223,29.27 9.648,37.161 6.407,7.89 16.473,11.824 30.18,11.824 1.77,0 3.676,-0.133 5.735,-0.391 2.046,-0.242 4.378,-0.625 6.875,-1.101 v -11.067 c -1.95,0.41 -3.817,0.695 -5.676,0.899 -1.871,0.214 -3.649,0.351 -5.434,0.351 -10.019,0 -17.222,-2.613 -21.613,-7.851 -4.375,-5.215 -6.551,-13.922 -6.551,-26.172 v -16.524 h 21.481 V 164.199 H 394.078 V 58.7617 h -13.164 v 0" /><path
             id="path44"
             style="fill:#231f20;fill-opacity:1;fill-rule:evenodd;stroke:none"
             d="m 451.062,132.234 h 74.059 c -1.348,10.227 -5.324,18.442 -11.984,24.692 -6.629,6.199 -14.68,9.312 -24.09,9.312 -9.66,0 -18.047,-3.152 -25.117,-9.453 -7.039,-6.289 -11.317,-14.48 -12.868,-24.551 z m 87.012,-60.6402 c -7.515,-5.2149 -14.937,-9.1133 -22.168,-11.6329 -7.258,-2.5195 -14.718,-3.7812 -22.375,-3.7812 -17.414,0 -31.367,5.707 -41.961,17.1289 -10.531,11.4258 -15.824,26.5937 -15.824,45.4294 0,17.649 5.016,31.817 14.945,42.5 9.993,10.715 23.071,16.086 39.325,16.086 15.086,0 27.226,-5.09 36.492,-15.246 9.234,-10.183 13.867,-23.652 13.867,-40.437 v -0.52 h -90.941 v -1.375 c 0,-15.168 4.078,-27.4726 12.242,-36.8476 8.16,-9.414 18.738,-14.082 31.636,-14.082 7.735,0 15.172,1.3789 22.336,4.0938 7.133,2.7343 14.629,7.0312 22.426,12.9296 v -14.246" /><path
             id="path46"
             style="fill:#231f20;fill-opacity:1;fill-rule:nonzero;stroke:none"
             d="m 569.727,79.8828 c 5.875,-3.957 11.711,-6.8555 17.402,-8.75 5.726,-1.9219 11.508,-2.8242 17.406,-2.8242 7.473,0 13.363,1.7422 17.645,5.2539 4.312,3.5469 6.437,8.3789 6.437,14.5117 0,8.9688 -7.789,16.3008 -23.465,22.0628 -4.004,1.457 -7.14,2.636 -9.41,3.476 -8.613,3.352 -15.023,7.703 -19.301,13.047 -4.328,5.293 -6.476,11.649 -6.476,18.914 0,9.414 3.449,17.094 10.312,23.039 6.852,5.996 15.754,8.953 26.676,8.953 4.985,0 10.09,-0.8 15.332,-2.398 5.27,-1.594 10.711,-4.074 16.36,-7.453 v -13.32 c -5.895,3.769 -11.532,6.574 -16.907,8.464 -5.406,1.914 -10.609,2.844 -15.644,2.844 -6.875,0 -12.586,-1.863 -17.035,-5.574 -4.446,-3.762 -6.672,-8.52 -6.672,-14.328 0,-5.098 2.047,-9.395 6.133,-12.891 4.042,-3.457 11.617,-7.148 22.707,-10.969 11.793,-4.16 19.902,-8.613 24.238,-13.464 4.402,-4.797 6.57,-11.1528 6.57,-19.0434 0,-10.3516 -3.426,-18.4648 -10.289,-24.375 -6.891,-5.918 -16.262,-8.8789 -28.211,-8.8789 -6.074,0 -11.851,0.8633 -17.344,2.5 -5.503,1.7031 -11.011,4.2578 -16.464,7.7383 v 13.4648" /><path
             id="path48"
             style="fill:#231f20;fill-opacity:1;fill-rule:nonzero;stroke:none"
             d="m 669.703,79.8828 c 5.922,-3.957 11.699,-6.8555 17.43,-8.75 5.703,-1.9219 11.527,-2.8242 17.383,-2.8242 7.515,0 13.39,1.7422 17.675,5.2539 4.274,3.5469 6.422,8.3789 6.422,14.5117 0,8.9688 -7.793,16.3008 -23.437,22.0628 -3.992,1.457 -7.203,2.636 -9.41,3.476 -8.633,3.352 -15.047,7.703 -19.328,13.047 -4.309,5.293 -6.438,11.649 -6.438,18.914 0,9.414 3.398,17.094 10.258,23.039 6.875,5.996 15.777,8.953 26.695,8.953 4.957,0 10.094,-0.8 15.328,-2.398 5.274,-1.594 10.715,-4.074 16.34,-7.453 v -13.32 c -5.891,3.769 -11.516,6.574 -16.922,8.464 -5.351,1.914 -10.59,2.844 -15.605,2.844 -6.871,0 -12.563,-1.863 -17.024,-5.574 -4.476,-3.762 -6.672,-8.52 -6.672,-14.328 0,-5.098 2.032,-9.395 6.082,-12.891 4.11,-3.457 11.692,-7.148 22.75,-10.969 11.805,-4.16 19.883,-8.613 24.25,-13.464 4.375,-4.797 6.563,-11.1528 6.563,-19.0434 0,-10.3516 -3.422,-18.4648 -10.301,-24.375 -6.883,-5.918 -16.277,-8.8789 -28.222,-8.8789 -6.055,0 -11.832,0.8633 -17.344,2.5 -5.496,1.7031 -10.988,4.2578 -16.473,7.7383 v 13.4648" /><path
             id="path50"
             style="fill:#231f20;fill-opacity:1;fill-rule:evenodd;stroke:none"
             d="M 777.496,58.7617 V 174.988 h 13.141 V 58.7617 h -13.141 z m 0,154.6253 v 21.371 h 13.141 v -21.371 h -13.141 v 0" /><path
             id="path52"
             style="fill:#231f20;fill-opacity:1;fill-rule:evenodd;stroke:none"
             d="m 825.422,117.004 c 0,16.863 5.922,31.187 17.668,42.937 11.765,11.77 26.109,17.625 43.109,17.625 16.824,0 31.129,-5.894 42.942,-17.683 11.797,-11.789 17.691,-26.094 17.691,-42.879 0,-7.953 -1.566,-15.727 -4.703,-23.2345 -3.18,-7.4922 -7.594,-14.1133 -13.34,-19.8242 -5.762,-5.793 -12.309,-10.168 -19.519,-13.0859 -7.262,-2.9219 -14.938,-4.4141 -23.071,-4.4141 -17,0 -31.344,5.8516 -43.109,17.5859 -11.746,11.6602 -17.668,26.0278 -17.668,42.9728 z m 14.203,-0.258 c 0,-13.523 4.578,-24.9608 13.637,-34.3437 9.082,-9.3945 20.082,-14.0937 32.937,-14.0937 12.801,0 23.668,4.6992 32.672,14.0937 9.012,9.3829 13.516,20.8207 13.516,34.3437 0,13.586 -4.504,25.117 -13.457,34.543 -8.965,9.453 -19.871,14.149 -32.731,14.149 -13.035,0 -24.066,-4.696 -33.062,-14.149 -8.989,-9.426 -13.512,-20.957 -13.512,-34.543 v 0" /><path
             id="path54"
             style="fill:#231f20;fill-opacity:1;fill-rule:nonzero;stroke:none"
             d="M 980.039,58.7617 V 174.988 h 12.91 v -18.601 c 5.621,6.972 11.811,12.148 18.491,15.566 6.68,3.418 13.99,5.098 21.89,5.098 13.22,0 23.38,-4.121 30.53,-12.317 7.14,-8.23 10.71,-19.91 10.71,-35.136 V 58.7617 h -12.94 v 64.6953 c 0,14.012 -2.44,24.441 -7.33,31.355 -4.91,6.934 -12.33,10.411 -22.27,10.411 -8.05,0 -15.37,-2.059 -21.89,-6.2 -6.52,-4.074 -12.226,-10.207 -17.191,-18.339 V 58.7617 h -12.91 v 0" /><path
             id="path56"
             style="fill:#231f20;fill-opacity:1;fill-rule:evenodd;stroke:none"
             d="m 1175.15,70.0508 c -6.48,-4.9727 -12.5,-8.5078 -18.1,-10.625 -5.59,-2.1992 -11.44,-3.2461 -17.58,-3.2461 -9.6,0 -17.33,2.7656 -23.31,8.3398 -5.96,5.5313 -8.95,12.7071 -8.95,21.5157 0,12.8515 5.81,22.9768 17.48,30.3518 11.61,7.39 28.35,11.551 50.19,12.468 v 12.344 c 0,8.711 -2.07,15.09 -6.21,19.063 -4.2,3.957 -10.82,5.976 -19.88,5.976 -5.62,0 -11.29,-1.14 -17.03,-3.394 -5.73,-2.278 -11.94,-5.879 -18.64,-10.832 v 12.722 c 6.56,4.336 12.86,7.563 18.84,9.68 6.05,2.117 11.98,3.152 17.86,3.152 13.39,0 23.07,-3.074 29.04,-9.246 5.96,-6.183 8.92,-16.211 8.92,-30.156 V 77.2266 c 0,-2.5391 0.39,-4.3946 1.04,-5.6328 0.68,-1.2032 1.7,-1.7813 3.17,-1.7813 2.01,0 5.51,2.1797 10.46,6.5352 1.2,1.0742 2.06,1.8945 2.67,2.3906 l 0.1,-11.7266 c -3.76,-3.4961 -7.26,-6.1914 -10.48,-7.9492 -3.21,-1.7383 -6.03,-2.6172 -8.47,-2.6172 -3.72,0 -6.42,1.0352 -8.15,3.2109 -1.76,2.1407 -2.72,5.5977 -2.97,10.3946 z m -0.27,12.0664 v 36.4298 c -16.81,-0.266 -30.09,-3.285 -39.85,-9.074 -9.76,-5.793 -14.64,-13.4261 -14.64,-22.9418 0,-5.9453 2.02,-10.664 6.03,-14.1015 4.07,-3.4375 9.62,-5.1953 16.69,-5.1953 4.81,0 9.72,1.2422 14.87,3.6133 5.11,2.4062 10.78,6.1328 16.9,11.2695 v 0" /><path
             id="path58"
             style="fill:#231f20;fill-opacity:1;fill-rule:nonzero;stroke:none"
             d="M 1233.33,58.7617 V 234.758 h 13.18 V 58.7617 h -13.18 v 0" /><path
             id="path60"
             style="fill:#231f20;fill-opacity:1;fill-rule:evenodd;stroke:none"
             d="m 1373.3,132.234 h 74.04 c -1.32,10.227 -5.33,18.442 -11.99,24.692 -6.64,6.199 -14.68,9.312 -24.09,9.312 -9.66,0 -18.03,-3.152 -25.08,-9.453 -7.1,-6.289 -11.39,-14.48 -12.88,-24.551 z m 87,-60.6402 c -7.57,-5.2149 -14.97,-9.1133 -22.2,-11.6329 -7.25,-2.5195 -14.68,-3.7812 -22.33,-3.7812 -17.44,0 -31.43,5.707 -41.97,17.1289 -10.57,11.4258 -15.85,26.5937 -15.85,45.4294 0,17.649 4.99,31.817 14.98,42.5 9.94,10.715 23.04,16.086 39.28,16.086 15.04,0 27.22,-5.09 36.46,-15.246 9.25,-10.183 13.86,-23.652 13.86,-40.437 v -0.52 h -90.87 v -1.375 c 0,-15.168 4.08,-27.4726 12.23,-36.8476 8.18,-9.414 18.68,-14.082 31.65,-14.082 7.74,0 15.15,1.3789 22.32,4.0938 7.13,2.7343 14.63,7.0312 22.44,12.9296 v -14.246" /><path
             id="path62"
             style="fill:#231f20;fill-opacity:1;fill-rule:nonzero;stroke:none"
             d="M 1498.66,58.7617 V 174.988 h 12.92 v -18.601 c 5.36,6.972 11.29,12.148 17.69,15.566 6.46,3.418 13.44,5.098 21.03,5.098 8.72,0 15.94,-1.867 21.66,-5.598 5.73,-3.738 10.53,-9.773 14.46,-18.086 6.5,8.156 13.1,14.172 19.87,17.949 6.72,3.829 14.1,5.735 22.05,5.735 12.72,0 22.54,-4.121 29.39,-12.317 6.9,-8.23 10.35,-19.91 10.35,-35.136 V 58.7617 h -13.13 v 64.6953 c 0,14.012 -2.36,24.441 -7.02,31.355 -4.68,6.934 -11.7,10.411 -21.15,10.411 -7.71,0 -14.7,-2.098 -20.91,-6.258 -6.23,-4.153 -11.54,-10.227 -16.04,-18.281 V 58.7617 h -12.89 v 64.6953 c 0,14.012 -2.37,24.441 -7.06,31.355 -4.73,6.934 -11.83,10.411 -21.34,10.411 -7.52,0 -14.44,-2.059 -20.64,-6.2 -6.18,-4.074 -11.6,-10.207 -16.32,-18.339 V 58.7617 h -12.92 v 0" /><path
             id="path64"
             style="fill:#231f20;fill-opacity:1;fill-rule:evenodd;stroke:none"
             d="m 1768.25,70.0508 c -6.49,-4.9727 -12.48,-8.5078 -18.11,-10.625 -5.56,-2.1992 -11.42,-3.2461 -17.55,-3.2461 -9.6,0 -17.33,2.7656 -23.31,8.3398 -6,5.5313 -8.96,12.7071 -8.96,21.5157 0,12.8515 5.82,22.9768 17.45,30.3518 11.62,7.39 28.37,11.551 50.19,12.468 v 12.344 c 0,8.711 -2.05,15.09 -6.2,19.063 -4.17,3.957 -10.79,5.976 -19.88,5.976 -5.62,0 -11.29,-1.14 -17,-3.394 -5.73,-2.278 -11.95,-5.879 -18.65,-10.832 v 12.722 c 6.58,4.336 12.81,7.563 18.85,9.68 6.01,2.117 11.93,3.152 17.86,3.152 13.37,0 23.04,-3.074 29.01,-9.246 5.97,-6.183 8.96,-16.211 8.96,-30.156 V 77.2266 c 0,-2.5391 0.34,-4.3946 1.01,-5.6328 0.67,-1.2032 1.69,-1.7813 3.19,-1.7813 2.02,0 5.5,2.1797 10.45,6.5352 1.19,1.0742 2.07,1.8945 2.68,2.3906 l 0.08,-11.7266 c -3.77,-3.4961 -7.28,-6.1914 -10.47,-7.9492 -3.2,-1.7383 -6.03,-2.6172 -8.47,-2.6172 -3.74,0 -6.47,1.0352 -8.15,3.2109 -1.76,2.1407 -2.72,5.5977 -2.98,10.3946 z m -0.29,12.0664 v 36.4298 c -16.8,-0.266 -30.06,-3.285 -39.83,-9.074 -9.78,-5.793 -14.61,-13.4261 -14.61,-22.9418 0,-5.9453 2,-10.664 6.04,-14.1015 4.03,-3.4375 9.6,-5.1953 16.67,-5.1953 4.77,0 9.74,1.2422 14.85,3.6133 5.14,2.4062 10.78,6.1328 16.88,11.2695 v 0" /><path
             id="path66"
             style="fill:#231f20;fill-opacity:1;fill-rule:evenodd;stroke:none"
             d="M 1826.46,58.7617 V 174.988 h 13.14 V 58.7617 h -13.14 z m 0,154.6253 v 21.371 h 13.14 v -21.371 h -13.14 v 0" /><path
             id="path68"
             style="fill:#231f20;fill-opacity:1;fill-rule:nonzero;stroke:none"
             d="M 1883.18,58.7617 V 234.758 h 13.16 V 58.7617 h -13.16 v 0" /><path
             id="path70"
             style="fill:#231f20;fill-opacity:1;fill-rule:nonzero;stroke:none"
             d="M 2014.26,58.7617 V 174.988 h 12.91 v -18.601 c 5.36,6.972 11.29,12.148 17.75,15.566 6.43,3.418 13.39,5.098 20.97,5.098 8.69,0 15.97,-1.867 21.66,-5.598 5.74,-3.738 10.54,-9.773 14.53,-18.086 6.44,8.156 13.07,14.172 19.76,17.949 6.74,3.829 14.11,5.735 22.1,5.735 12.71,0 22.52,-4.121 29.47,-12.317 6.86,-8.23 10.28,-19.91 10.28,-35.136 V 58.7617 h -13.14 v 64.6953 c 0,14.012 -2.33,24.441 -7.03,31.355 -4.65,6.934 -11.75,10.411 -21.11,10.411 -7.76,0 -14.73,-2.098 -20.93,-6.258 -6.23,-4.153 -11.58,-10.227 -16.06,-18.281 V 58.7617 h -12.87 v 64.6953 c 0,14.012 -2.4,24.441 -7.1,31.355 -4.7,6.934 -11.82,10.411 -21.33,10.411 -7.55,0 -14.43,-2.059 -20.58,-6.2 -6.19,-4.074 -11.63,-10.207 -16.37,-18.339 V 58.7617 h -12.91 v 0" /><path
             id="path72"
             style="fill:#231f20;fill-opacity:1;fill-rule:evenodd;stroke:none"
             d="m 2283.86,70.0508 c -6.44,-4.9727 -12.46,-8.5078 -18.05,-10.625 -5.62,-2.1992 -11.48,-3.2461 -17.65,-3.2461 -9.55,0 -17.33,2.7656 -23.29,8.3398 -5.96,5.5313 -8.92,12.7071 -8.92,21.5157 0,12.8515 5.79,22.9768 17.42,30.3518 11.69,7.39 28.39,11.551 50.24,12.468 v 12.344 c 0,8.711 -2.1,15.09 -6.26,19.063 -4.17,3.957 -10.76,5.976 -19.82,5.976 -5.65,0 -11.32,-1.14 -17.02,-3.394 -5.74,-2.278 -12.01,-5.879 -18.73,-10.832 v 12.722 c 6.6,4.336 12.91,7.563 18.91,9.68 5.99,2.117 11.97,3.152 17.82,3.152 13.43,0 23.12,-3.074 29.07,-9.246 5.98,-6.183 8.98,-16.211 8.98,-30.156 V 77.2266 c 0,-2.5391 0.29,-4.3946 0.95,-5.6328 0.68,-1.2032 1.74,-1.7813 3.18,-1.7813 2.04,0 5.52,2.1797 10.47,6.5352 1.18,1.0742 2.1,1.8945 2.67,2.3906 l 0.13,-11.7266 c -3.78,-3.4961 -7.29,-6.1914 -10.54,-7.9492 -3.19,-1.7383 -5.98,-2.6172 -8.44,-2.6172 -3.71,0 -6.42,1.0352 -8.12,3.2109 -1.76,2.1407 -2.73,5.5977 -3,10.3946 z m -0.25,12.0664 v 36.4298 c -16.79,-0.266 -30.12,-3.285 -39.9,-9.074 -9.76,-5.793 -14.63,-13.4261 -14.63,-22.9418 0,-5.9453 2.08,-10.664 6.11,-14.1015 3.98,-3.4375 9.53,-5.1953 16.61,-5.1953 4.8,0 9.73,1.2422 14.9,3.6133 5.12,2.4062 10.76,6.1328 16.91,11.2695 v 0" /><path
             id="path74"
             style="fill:#231f20;fill-opacity:1;fill-rule:nonzero;stroke:none"
             d="M 2342.83,58.7617 V 174.988 h 12.91 v -28.687 c 7.21,11.09 13.84,19 19.79,23.687 6,4.719 12.2,7.063 18.67,7.063 3.56,0 7,-0.703 10.27,-2.141 3.32,-1.441 6.79,-3.68 10.43,-6.695 l -7.07,-12.328 c -3.52,2.843 -6.76,4.914 -9.67,6.25 -2.88,1.386 -5.67,2.062 -8.42,2.062 -5.19,0 -10.47,-2.539 -15.84,-7.566 -5.4,-5.024 -11.47,-13.176 -18.16,-24.399 V 58.7617 h -12.91 v 0" /><path
             id="path76"
             style="fill:#231f20;fill-opacity:1;fill-rule:evenodd;stroke:none"
             d="M 2438.08,58.7617 V 234.758 h 12.96 V 58.7617 h -12.96 z m 76.12,0 -62.19,61.8633 54.54,54.363 h 17.26 l -54.53,-53.828 62.63,-62.3983 h -17.71 v 0" /><path
             id="path78"
             style="fill:#231f20;fill-opacity:1;fill-rule:evenodd;stroke:none"
             d="m 2562.53,132.234 h 74.04 c -1.39,10.227 -5.38,18.442 -11.98,24.692 -6.65,6.199 -14.7,9.312 -24.16,9.312 -9.64,0 -18.03,-3.152 -25.1,-9.453 -7.04,-6.289 -11.29,-14.48 -12.8,-24.551 z m 87.01,-60.6402 c -7.62,-5.2149 -15.01,-9.1133 -22.21,-11.6329 -7.27,-2.5195 -14.73,-3.7812 -22.37,-3.7812 -17.41,0 -31.39,5.707 -41.97,17.1289 -10.52,11.4258 -15.82,26.5937 -15.82,45.4294 0,17.649 4.95,31.817 14.94,42.5 9.94,10.715 23.1,16.086 39.31,16.086 15.06,0 27.21,-5.09 36.5,-15.246 9.23,-10.183 13.89,-23.652 13.89,-40.437 v -0.52 h -90.96 v -1.375 c 0,-15.168 4.13,-27.4726 12.28,-36.8476 8.09,-9.414 18.68,-14.082 31.6,-14.082 7.76,0 15.21,1.3789 22.35,4.0938 7.1,2.7343 14.66,7.0312 22.46,12.9296 v -14.246" /><path
             id="path80"
             style="fill:#231f20;fill-opacity:1;fill-rule:nonzero;stroke:none"
             d="m 2706.48,87.2969 c 0,-7.8164 1.05,-12.9727 3.19,-15.4727 2.14,-2.5273 5.98,-3.8086 11.47,-3.8086 2.88,0 5.92,0.5 8.99,1.4766 3.08,0.957 6.55,2.4414 10.45,4.4531 v -12.707 c -3.65,-1.5821 -7.19,-2.793 -10.66,-3.6094 -3.5,-0.8047 -7,-1.1836 -10.54,-1.1836 -9.67,0 -16.48,2.293 -20.42,6.9141 -3.96,4.6172 -5.95,12.664 -5.95,24.1797 v 76.6599 h -24.77 v 10.789 h 25.33 v 26.555 l 9.85,11.348 h 3.06 v -37.903 h 31.16 v -10.789 h -31.16 V 87.2969" /><path
             id="path82"
             style="fill:#231f20;fill-opacity:1;fill-rule:evenodd;stroke:none"
             d="M 2767.88,58.7617 V 174.988 h 13.18 V 58.7617 h -13.18 z m 0,154.6253 v 21.371 h 13.18 v -21.371 h -13.18 v 0" /><path
             id="path84"
             style="fill:#231f20;fill-opacity:1;fill-rule:nonzero;stroke:none"
             d="M 2823.6,58.7617 V 174.988 h 12.91 v -18.601 c 5.61,6.972 11.77,12.148 18.49,15.566 6.67,3.418 13.98,5.098 21.89,5.098 13.19,0 23.38,-4.121 30.54,-12.317 7.11,-8.23 10.68,-19.91 10.68,-35.136 V 58.7617 h -12.91 v 64.6953 c 0,14.012 -2.47,24.441 -7.32,31.355 -4.96,6.934 -12.38,10.411 -22.31,10.411 -8.07,0 -15.34,-2.059 -21.85,-6.2 -6.5,-4.074 -12.21,-10.207 -17.21,-18.339 V 58.7617 h -12.91 v 0" /><path
             id="path86"
             style="fill:#231f20;fill-opacity:1;fill-rule:evenodd;stroke:none"
             d="m 2982.19,95.168 c -9.49,3.7187 -16.71,8.766 -21.58,15.348 -4.81,6.535 -7.26,14.281 -7.26,23.254 0,7.199 1.8,13.847 5.44,19.941 3.6,6.055 8.77,11.211 15.46,15.359 3.46,2.121 7.42,3.606 11.84,4.543 4.47,0.938 11.46,1.375 20.96,1.375 h 43.39 v -11.093 h -24.85 c 4.82,-4.43 8.37,-9.083 10.63,-13.946 2.23,-4.832 3.41,-10.242 3.41,-16.179 0,-10.391 -3.05,-18.965 -9.15,-25.657 -6.09,-6.707 -15.58,-11.8825 -28.47,-15.5857 -2.01,-0.5937 -4.88,-1.3554 -8.61,-2.2734 -13.42,-3.3789 -20.18,-8.0977 -20.18,-14.2461 0,-5.6953 9.23,-9.4375 27.79,-11.1953 0.56,-0.0937 1.06,-0.1367 1.4,-0.1367 18.12,-1.7383 30.53,-4.9297 37.28,-9.5313 6.63,-4.6757 9.99,-11.8437 9.99,-21.6601 0,-11.2461 -4.41,-19.6328 -13.22,-25.19534 C 3027.62,2.76953 3014.17,0 2996.2,0 c -16.13,0 -28.5,2.66016 -36.99,7.98828 -8.57,5.30082 -12.87,13.01172 -12.87,22.96092 0,7.5586 2.81,13.8477 8.29,18.961 5.54,5.0586 13.15,8.2539 22.9,9.6328 -5.11,1.1992 -8.97,3.1328 -11.76,5.9726 -2.76,2.793 -4.18,6.2305 -4.18,10.2774 0,4.3515 1.83,8.1992 5.44,11.6172 3.55,3.3984 8.61,5.9765 15.16,7.7578 z m -15.93,38.316 c 0,-8.269 3,-15.32 8.87,-21.148 5.9,-5.844 13.14,-8.734 21.58,-8.734 8.41,0 15.51,2.929 21.44,8.808 5.86,5.832 8.78,12.988 8.78,21.36 0,8.347 -2.92,15.507 -8.78,21.335 -5.93,5.864 -13.03,8.79 -21.44,8.79 -8.33,0 -15.58,-2.95 -21.51,-8.907 -5.94,-5.937 -8.94,-13.101 -8.94,-21.504 z m 31.5,-80.3981 c -13.25,0 -23.15,-1.8164 -29.62,-5.5586 -6.44,-3.6718 -9.63,-9.2656 -9.63,-16.8359 0,-6.3711 3.38,-11.3125 10.05,-14.8711 6.68,-3.4805 16.08,-5.25 28.21,-5.25 13.35,0 23.38,1.8399 30.24,5.6094 6.87,3.7187 10.29,9.2617 10.29,16.543 0,6.875 -3.24,11.9961 -9.68,15.3515 -6.4,3.332 -16.39,5.0117 -29.86,5.0117 v 0" /><path
             id="path88"
             style="fill:#231f20;fill-opacity:1;fill-rule:evenodd;stroke:none"
             d="M 0.25,0.238281 V 174.988 h 12.3984 v -8.25 c 4.8047,3.594 9.8711,6.27 15.2461,8.02 5.3907,1.707 11.2657,2.566 17.6602,2.566 16.9765,0 30.7305,-5.566 41.2422,-16.679 10.4687,-11.153 15.7621,-25.676 15.7621,-43.641 0,-17.961 -5.2934,-32.5001 -15.7621,-43.6368 C 76.2852,62.2344 62.5312,56.7109 45.5547,56.7109 c -6.5703,0 -12.5078,0.8399 -17.832,2.4883 -5.3438,1.6797 -10.3516,4.3164 -15.0743,7.832 V 0.238281 H 0.25 Z M 12.6484,152.234 V 81.1406 c 4.3047,-4.4531 8.9844,-7.7734 14.0743,-9.8906 5.0898,-2.1406 10.8203,-3.2344 17.2031,-3.2344 13.0469,0 23.6367,4.5352 31.8515,13.5469 8.1915,9.0313 12.2891,20.7425 12.2891,35.1835 0,14.406 -4.0976,26.152 -12.2891,35.188 -8.2148,9.035 -18.8046,13.504 -31.8515,13.504 -6.4414,0 -12.2344,-1.051 -17.2617,-3.192 -5.0313,-2.117 -9.711,-5.461 -14.0157,-10.012 v 0" /><path
             id="path90"
             style="fill:#231f20;fill-opacity:1;fill-rule:nonzero;stroke:none"
             d="M 137.996,58.7617 V 174.988 h 12.938 v -28.687 c 7.234,11.09 13.816,19 19.796,23.687 5.981,4.719 12.184,7.063 18.645,7.063 3.539,0 6.973,-0.703 10.305,-2.141 3.332,-1.441 6.789,-3.68 10.398,-6.695 l -7.066,-12.328 c -3.535,2.843 -6.742,4.914 -9.668,6.25 -2.891,1.386 -5.688,2.062 -8.356,2.062 -5.215,0 -10.523,-2.539 -15.89,-7.566 -5.368,-5.024 -11.442,-13.176 -18.164,-24.399 V 58.7617 h -12.938 v 0" /><path
             id="path92"
             style="fill:#231f20;fill-opacity:1;fill-rule:evenodd;stroke:none"
             d="m 224.254,117.004 c 0,16.863 5.875,31.187 17.633,42.937 11.746,11.77 26.164,17.625 43.129,17.625 16.832,0 31.117,-5.894 42.929,-17.683 11.805,-11.789 17.692,-26.094 17.692,-42.879 0,-7.953 -1.559,-15.727 -4.739,-23.2345 -3.105,-7.4922 -7.562,-14.1133 -13.265,-19.8242 -5.797,-5.793 -12.328,-10.168 -19.563,-13.0859 -7.203,-2.9219 -14.925,-4.4141 -23.054,-4.4141 -16.965,0 -31.383,5.8516 -43.129,17.5859 -11.758,11.6602 -17.633,26.0278 -17.633,42.9728 z m 14.191,-0.258 c 0,-13.523 4.559,-24.9608 13.641,-34.3437 9.109,-9.3945 20.039,-14.0937 32.93,-14.0937 12.765,0 23.683,4.6992 32.664,14.0937 9.004,9.3829 13.496,20.8207 13.496,34.3437 0,13.586 -4.473,25.117 -13.446,34.543 -8.941,9.453 -19.847,14.149 -32.714,14.149 -13.028,0 -24.059,-4.696 -33.09,-14.149 -8.981,-9.426 -13.481,-20.957 -13.481,-34.543 v 0" /><path
             id="path94"
             style="fill:#231f20;fill-opacity:1;fill-rule:nonzero;stroke:none"
             d="M 380.914,58.7617 V 164.199 h -20.086 v 10.789 h 20.086 v 12.871 c 0,16.887 3.223,29.27 9.648,37.161 6.407,7.89 16.473,11.824 30.18,11.824 1.77,0 3.676,-0.133 5.735,-0.391 2.046,-0.242 4.378,-0.625 6.875,-1.101 v -11.067 c -1.95,0.41 -3.817,0.695 -5.676,0.899 -1.871,0.214 -3.649,0.351 -5.434,0.351 -10.019,0 -17.222,-2.613 -21.613,-7.851 -4.375,-5.215 -6.551,-13.922 -6.551,-26.172 v -16.524 h 21.481 V 164.199 H 394.078 V 58.7617 h -13.164 v 0" /><path
             id="path96"
             style="fill:#231f20;fill-opacity:1;fill-rule:evenodd;stroke:none"
             d="m 451.062,132.234 h 74.059 c -1.348,10.227 -5.324,18.442 -11.984,24.692 -6.629,6.199 -14.68,9.312 -24.09,9.312 -9.66,0 -18.047,-3.152 -25.117,-9.453 -7.039,-6.289 -11.317,-14.48 -12.868,-24.551 z m 87.012,-60.6402 c -7.515,-5.2149 -14.937,-9.1133 -22.168,-11.6329 -7.258,-2.5195 -14.718,-3.7812 -22.375,-3.7812 -17.414,0 -31.367,5.707 -41.961,17.1289 -10.531,11.4258 -15.824,26.5937 -15.824,45.4294 0,17.649 5.016,31.817 14.945,42.5 9.993,10.715 23.071,16.086 39.325,16.086 15.086,0 27.226,-5.09 36.492,-15.246 9.234,-10.183 13.867,-23.652 13.867,-40.437 v -0.52 h -90.941 v -1.375 c 0,-15.168 4.078,-27.4726 12.242,-36.8476 8.16,-9.414 18.738,-14.082 31.636,-14.082 7.735,0 15.172,1.3789 22.336,4.0938 7.133,2.7343 14.629,7.0312 22.426,12.9296 v -14.246" /><path
             id="path98"
             style="fill:#231f20;fill-opacity:1;fill-rule:nonzero;stroke:none"
             d="m 569.727,79.8828 c 5.875,-3.957 11.711,-6.8555 17.402,-8.75 5.726,-1.9219 11.508,-2.8242 17.406,-2.8242 7.473,0 13.363,1.7422 17.645,5.2539 4.312,3.5469 6.437,8.3789 6.437,14.5117 0,8.9688 -7.789,16.3008 -23.465,22.0628 -4.004,1.457 -7.14,2.636 -9.41,3.476 -8.613,3.352 -15.023,7.703 -19.301,13.047 -4.328,5.293 -6.476,11.649 -6.476,18.914 0,9.414 3.449,17.094 10.312,23.039 6.852,5.996 15.754,8.953 26.676,8.953 4.985,0 10.09,-0.8 15.332,-2.398 5.27,-1.594 10.711,-4.074 16.36,-7.453 v -13.32 c -5.895,3.769 -11.532,6.574 -16.907,8.464 -5.406,1.914 -10.609,2.844 -15.644,2.844 -6.875,0 -12.586,-1.863 -17.035,-5.574 -4.446,-3.762 -6.672,-8.52 -6.672,-14.328 0,-5.098 2.047,-9.395 6.133,-12.891 4.042,-3.457 11.617,-7.148 22.707,-10.969 11.793,-4.16 19.902,-8.613 24.238,-13.464 4.402,-4.797 6.57,-11.1528 6.57,-19.0434 0,-10.3516 -3.426,-18.4648 -10.289,-24.375 -6.891,-5.918 -16.262,-8.8789 -28.211,-8.8789 -6.074,0 -11.851,0.8633 -17.344,2.5 -5.503,1.7031 -11.011,4.2578 -16.464,7.7383 v 13.4648" /><path
             id="path100"
             style="fill:#231f20;fill-opacity:1;fill-rule:nonzero;stroke:none"
             d="m 669.703,79.8828 c 5.922,-3.957 11.699,-6.8555 17.43,-8.75 5.703,-1.9219 11.527,-2.8242 17.383,-2.8242 7.515,0 13.39,1.7422 17.675,5.2539 4.274,3.5469 6.422,8.3789 6.422,14.5117 0,8.9688 -7.793,16.3008 -23.437,22.0628 -3.992,1.457 -7.203,2.636 -9.41,3.476 -8.633,3.352 -15.047,7.703 -19.328,13.047 -4.309,5.293 -6.438,11.649 -6.438,18.914 0,9.414 3.398,17.094 10.258,23.039 6.875,5.996 15.777,8.953 26.695,8.953 4.957,0 10.094,-0.8 15.328,-2.398 5.274,-1.594 10.715,-4.074 16.34,-7.453 v -13.32 c -5.891,3.769 -11.516,6.574 -16.922,8.464 -5.351,1.914 -10.59,2.844 -15.605,2.844 -6.871,0 -12.563,-1.863 -17.024,-5.574 -4.476,-3.762 -6.672,-8.52 -6.672,-14.328 0,-5.098 2.032,-9.395 6.082,-12.891 4.11,-3.457 11.692,-7.148 22.75,-10.969 11.805,-4.16 19.883,-8.613 24.25,-13.464 4.375,-4.797 6.563,-11.1528 6.563,-19.0434 0,-10.3516 -3.422,-18.4648 -10.301,-24.375 -6.883,-5.918 -16.277,-8.8789 -28.222,-8.8789 -6.055,0 -11.832,0.8633 -17.344,2.5 -5.496,1.7031 -10.988,4.2578 -16.473,7.7383 v 13.4648" /><path
             id="path102"
             style="fill:#231f20;fill-opacity:1;fill-rule:evenodd;stroke:none"
             d="M 777.496,58.7617 V 174.988 h 13.141 V 58.7617 h -13.141 z m 0,154.6253 v 21.371 h 13.141 v -21.371 h -13.141 v 0" /><path
             id="path104"
             style="fill:#231f20;fill-opacity:1;fill-rule:evenodd;stroke:none"
             d="m 825.422,117.004 c 0,16.863 5.922,31.187 17.668,42.937 11.765,11.77 26.109,17.625 43.109,17.625 16.824,0 31.129,-5.894 42.942,-17.683 11.797,-11.789 17.691,-26.094 17.691,-42.879 0,-7.953 -1.566,-15.727 -4.703,-23.2345 -3.18,-7.4922 -7.594,-14.1133 -13.34,-19.8242 -5.762,-5.793 -12.309,-10.168 -19.519,-13.0859 -7.262,-2.9219 -14.938,-4.4141 -23.071,-4.4141 -17,0 -31.344,5.8516 -43.109,17.5859 -11.746,11.6602 -17.668,26.0278 -17.668,42.9728 z m 14.203,-0.258 c 0,-13.523 4.578,-24.9608 13.637,-34.3437 9.082,-9.3945 20.082,-14.0937 32.937,-14.0937 12.801,0 23.668,4.6992 32.672,14.0937 9.012,9.3829 13.516,20.8207 13.516,34.3437 0,13.586 -4.504,25.117 -13.457,34.543 -8.965,9.453 -19.871,14.149 -32.731,14.149 -13.035,0 -24.066,-4.696 -33.062,-14.149 -8.989,-9.426 -13.512,-20.957 -13.512,-34.543 v 0" /><path
             id="path106"
             style="fill:#231f20;fill-opacity:1;fill-rule:nonzero;stroke:none"
             d="M 980.039,58.7617 V 174.988 h 12.91 v -18.601 c 5.621,6.972 11.811,12.148 18.491,15.566 6.68,3.418 13.99,5.098 21.89,5.098 13.22,0 23.38,-4.121 30.53,-12.317 7.14,-8.23 10.71,-19.91 10.71,-35.136 V 58.7617 h -12.94 v 64.6953 c 0,14.012 -2.44,24.441 -7.33,31.355 -4.91,6.934 -12.33,10.411 -22.27,10.411 -8.05,0 -15.37,-2.059 -21.89,-6.2 -6.52,-4.074 -12.226,-10.207 -17.191,-18.339 V 58.7617 h -12.91 v 0" /><path
             id="path108"
             style="fill:#231f20;fill-opacity:1;fill-rule:evenodd;stroke:none"
             d="m 1175.15,70.0508 c -6.48,-4.9727 -12.5,-8.5078 -18.1,-10.625 -5.59,-2.1992 -11.44,-3.2461 -17.58,-3.2461 -9.6,0 -17.33,2.7656 -23.31,8.3398 -5.96,5.5313 -8.95,12.7071 -8.95,21.5157 0,12.8515 5.81,22.9768 17.48,30.3518 11.61,7.39 28.35,11.551 50.19,12.468 v 12.344 c 0,8.711 -2.07,15.09 -6.21,19.063 -4.2,3.957 -10.82,5.976 -19.88,5.976 -5.62,0 -11.29,-1.14 -17.03,-3.394 -5.73,-2.278 -11.94,-5.879 -18.64,-10.832 v 12.722 c 6.56,4.336 12.86,7.563 18.84,9.68 6.05,2.117 11.98,3.152 17.86,3.152 13.39,0 23.07,-3.074 29.04,-9.246 5.96,-6.183 8.92,-16.211 8.92,-30.156 V 77.2266 c 0,-2.5391 0.39,-4.3946 1.04,-5.6328 0.68,-1.2032 1.7,-1.7813 3.17,-1.7813 2.01,0 5.51,2.1797 10.46,6.5352 1.2,1.0742 2.06,1.8945 2.67,2.3906 l 0.1,-11.7266 c -3.76,-3.4961 -7.26,-6.1914 -10.48,-7.9492 -3.21,-1.7383 -6.03,-2.6172 -8.47,-2.6172 -3.72,0 -6.42,1.0352 -8.15,3.2109 -1.76,2.1407 -2.72,5.5977 -2.97,10.3946 z m -0.27,12.0664 v 36.4298 c -16.81,-0.266 -30.09,-3.285 -39.85,-9.074 -9.76,-5.793 -14.64,-13.4261 -14.64,-22.9418 0,-5.9453 2.02,-10.664 6.03,-14.1015 4.07,-3.4375 9.62,-5.1953 16.69,-5.1953 4.81,0 9.72,1.2422 14.87,3.6133 5.11,2.4062 10.78,6.1328 16.9,11.2695 v 0" /><path
             id="path110"
             style="fill:#231f20;fill-opacity:1;fill-rule:nonzero;stroke:none"
             d="M 1233.33,58.7617 V 234.758 h 13.18 V 58.7617 h -13.18 v 0" /><path
             id="path112"
             style="fill:#231f20;fill-opacity:1;fill-rule:evenodd;stroke:none"
             d="m 1373.3,132.234 h 74.04 c -1.32,10.227 -5.33,18.442 -11.99,24.692 -6.64,6.199 -14.68,9.312 -24.09,9.312 -9.66,0 -18.03,-3.152 -25.08,-9.453 -7.1,-6.289 -11.39,-14.48 -12.88,-24.551 z m 87,-60.6402 c -7.57,-5.2149 -14.97,-9.1133 -22.2,-11.6329 -7.25,-2.5195 -14.68,-3.7812 -22.33,-3.7812 -17.44,0 -31.43,5.707 -41.97,17.1289 -10.57,11.4258 -15.85,26.5937 -15.85,45.4294 0,17.649 4.99,31.817 14.98,42.5 9.94,10.715 23.04,16.086 39.28,16.086 15.04,0 27.22,-5.09 36.46,-15.246 9.25,-10.183 13.86,-23.652 13.86,-40.437 v -0.52 h -90.87 v -1.375 c 0,-15.168 4.08,-27.4726 12.23,-36.8476 8.18,-9.414 18.68,-14.082 31.65,-14.082 7.74,0 15.15,1.3789 22.32,4.0938 7.13,2.7343 14.63,7.0312 22.44,12.9296 v -14.246" /><path
             id="path114"
             style="fill:#231f20;fill-opacity:1;fill-rule:nonzero;stroke:none"
             d="M 1498.66,58.7617 V 174.988 h 12.92 v -18.601 c 5.36,6.972 11.29,12.148 17.69,15.566 6.46,3.418 13.44,5.098 21.03,5.098 8.72,0 15.94,-1.867 21.66,-5.598 5.73,-3.738 10.53,-9.773 14.46,-18.086 6.5,8.156 13.1,14.172 19.87,17.949 6.72,3.829 14.1,5.735 22.05,5.735 12.72,0 22.54,-4.121 29.39,-12.317 6.9,-8.23 10.35,-19.91 10.35,-35.136 V 58.7617 h -13.13 v 64.6953 c 0,14.012 -2.36,24.441 -7.02,31.355 -4.68,6.934 -11.7,10.411 -21.15,10.411 -7.71,0 -14.7,-2.098 -20.91,-6.258 -6.23,-4.153 -11.54,-10.227 -16.04,-18.281 V 58.7617 h -12.89 v 64.6953 c 0,14.012 -2.37,24.441 -7.06,31.355 -4.73,6.934 -11.83,10.411 -21.34,10.411 -7.52,0 -14.44,-2.059 -20.64,-6.2 -6.18,-4.074 -11.6,-10.207 -16.32,-18.339 V 58.7617 h -12.92 v 0" /><path
             id="path116"
             style="fill:#231f20;fill-opacity:1;fill-rule:evenodd;stroke:none"
             d="m 1768.25,70.0508 c -6.49,-4.9727 -12.48,-8.5078 -18.11,-10.625 -5.56,-2.1992 -11.42,-3.2461 -17.55,-3.2461 -9.6,0 -17.33,2.7656 -23.31,8.3398 -6,5.5313 -8.96,12.7071 -8.96,21.5157 0,12.8515 5.82,22.9768 17.45,30.3518 11.62,7.39 28.37,11.551 50.19,12.468 v 12.344 c 0,8.711 -2.05,15.09 -6.2,19.063 -4.17,3.957 -10.79,5.976 -19.88,5.976 -5.62,0 -11.29,-1.14 -17,-3.394 -5.73,-2.278 -11.95,-5.879 -18.65,-10.832 v 12.722 c 6.58,4.336 12.81,7.563 18.85,9.68 6.01,2.117 11.93,3.152 17.86,3.152 13.37,0 23.04,-3.074 29.01,-9.246 5.97,-6.183 8.96,-16.211 8.96,-30.156 V 77.2266 c 0,-2.5391 0.34,-4.3946 1.01,-5.6328 0.67,-1.2032 1.69,-1.7813 3.19,-1.7813 2.02,0 5.5,2.1797 10.45,6.5352 1.19,1.0742 2.07,1.8945 2.68,2.3906 l 0.08,-11.7266 c -3.77,-3.4961 -7.28,-6.1914 -10.47,-7.9492 -3.2,-1.7383 -6.03,-2.6172 -8.47,-2.6172 -3.74,0 -6.47,1.0352 -8.15,3.2109 -1.76,2.1407 -2.72,5.5977 -2.98,10.3946 z m -0.29,12.0664 v 36.4298 c -16.8,-0.266 -30.06,-3.285 -39.83,-9.074 -9.78,-5.793 -14.61,-13.4261 -14.61,-22.9418 0,-5.9453 2,-10.664 6.04,-14.1015 4.03,-3.4375 9.6,-5.1953 16.67,-5.1953 4.77,0 9.74,1.2422 14.85,3.6133 5.14,2.4062 10.78,6.1328 16.88,11.2695 v 0" /><path
             id="path118"
             style="fill:#231f20;fill-opacity:1;fill-rule:evenodd;stroke:none"
             d="M 1826.46,58.7617 V 174.988 h 13.14 V 58.7617 h -13.14 z m 0,154.6253 v 21.371 h 13.14 v -21.371 h -13.14 v 0" /><path
             id="path120"
             style="fill:#231f20;fill-opacity:1;fill-rule:nonzero;stroke:none"
             d="M 1883.18,58.7617 V 234.758 h 13.16 V 58.7617 h -13.16 v 0" /><path
             id="path122"
             style="fill:#231f20;fill-opacity:1;fill-rule:nonzero;stroke:none"
             d="M 2014.26,58.7617 V 174.988 h 12.91 v -18.601 c 5.36,6.972 11.29,12.148 17.75,15.566 6.43,3.418 13.39,5.098 20.97,5.098 8.69,0 15.97,-1.867 21.66,-5.598 5.74,-3.738 10.54,-9.773 14.53,-18.086 6.44,8.156 13.07,14.172 19.76,17.949 6.74,3.829 14.11,5.735 22.1,5.735 12.71,0 22.52,-4.121 29.47,-12.317 6.86,-8.23 10.28,-19.91 10.28,-35.136 V 58.7617 h -13.14 v 64.6953 c 0,14.012 -2.33,24.441 -7.03,31.355 -4.65,6.934 -11.75,10.411 -21.11,10.411 -7.76,0 -14.73,-2.098 -20.93,-6.258 -6.23,-4.153 -11.58,-10.227 -16.06,-18.281 V 58.7617 h -12.87 v 64.6953 c 0,14.012 -2.4,24.441 -7.1,31.355 -4.7,6.934 -11.82,10.411 -21.33,10.411 -7.55,0 -14.43,-2.059 -20.58,-6.2 -6.19,-4.074 -11.63,-10.207 -16.37,-18.339 V 58.7617 h -12.91 v 0" /><path
             id="path124"
             style="fill:#231f20;fill-opacity:1;fill-rule:evenodd;stroke:none"
             d="m 2283.86,70.0508 c -6.44,-4.9727 -12.46,-8.5078 -18.05,-10.625 -5.62,-2.1992 -11.48,-3.2461 -17.65,-3.2461 -9.55,0 -17.33,2.7656 -23.29,8.3398 -5.96,5.5313 -8.92,12.7071 -8.92,21.5157 0,12.8515 5.79,22.9768 17.42,30.3518 11.69,7.39 28.39,11.551 50.24,12.468 v 12.344 c 0,8.711 -2.1,15.09 -6.26,19.063 -4.17,3.957 -10.76,5.976 -19.82,5.976 -5.65,0 -11.32,-1.14 -17.02,-3.394 -5.74,-2.278 -12.01,-5.879 -18.73,-10.832 v 12.722 c 6.6,4.336 12.91,7.563 18.91,9.68 5.99,2.117 11.97,3.152 17.82,3.152 13.43,0 23.12,-3.074 29.07,-9.246 5.98,-6.183 8.98,-16.211 8.98,-30.156 V 77.2266 c 0,-2.5391 0.29,-4.3946 0.95,-5.6328 0.68,-1.2032 1.74,-1.7813 3.18,-1.7813 2.04,0 5.52,2.1797 10.47,6.5352 1.18,1.0742 2.1,1.8945 2.67,2.3906 l 0.13,-11.7266 c -3.78,-3.4961 -7.29,-6.1914 -10.54,-7.9492 -3.19,-1.7383 -5.98,-2.6172 -8.44,-2.6172 -3.71,0 -6.42,1.0352 -8.12,3.2109 -1.76,2.1407 -2.73,5.5977 -3,10.3946 z m -0.25,12.0664 v 36.4298 c -16.79,-0.266 -30.12,-3.285 -39.9,-9.074 -9.76,-5.793 -14.63,-13.4261 -14.63,-22.9418 0,-5.9453 2.08,-10.664 6.11,-14.1015 3.98,-3.4375 9.53,-5.1953 16.61,-5.1953 4.8,0 9.73,1.2422 14.9,3.6133 5.12,2.4062 10.76,6.1328 16.91,11.2695 v 0" /><path
             id="path126"
             style="fill:#231f20;fill-opacity:1;fill-rule:nonzero;stroke:none"
             d="M 2342.83,58.7617 V 174.988 h 12.91 v -28.687 c 7.21,11.09 13.84,19 19.79,23.687 6,4.719 12.2,7.063 18.67,7.063 3.56,0 7,-0.703 10.27,-2.141 3.32,-1.441 6.79,-3.68 10.43,-6.695 l -7.07,-12.328 c -3.52,2.843 -6.76,4.914 -9.67,6.25 -2.88,1.386 -5.67,2.062 -8.42,2.062 -5.19,0 -10.47,-2.539 -15.84,-7.566 -5.4,-5.024 -11.47,-13.176 -18.16,-24.399 V 58.7617 h -12.91 v 0" /><path
             id="path128"
             style="fill:#231f20;fill-opacity:1;fill-rule:evenodd;stroke:none"
             d="M 2438.08,58.7617 V 234.758 h 12.96 V 58.7617 h -12.96 z m 76.12,0 -62.19,61.8633 54.54,54.363 h 17.26 l -54.53,-53.828 62.63,-62.3983 h -17.71 v 0" /><path
             id="path130"
             style="fill:#231f20;fill-opacity:1;fill-rule:evenodd;stroke:none"
             d="m 2562.53,132.234 h 74.04 c -1.39,10.227 -5.38,18.442 -11.98,24.692 -6.65,6.199 -14.7,9.312 -24.16,9.312 -9.64,0 -18.03,-3.152 -25.1,-9.453 -7.04,-6.289 -11.29,-14.48 -12.8,-24.551 z m 87.01,-60.6402 c -7.62,-5.2149 -15.01,-9.1133 -22.21,-11.6329 -7.27,-2.5195 -14.73,-3.7812 -22.37,-3.7812 -17.41,0 -31.39,5.707 -41.97,17.1289 -10.52,11.4258 -15.82,26.5937 -15.82,45.4294 0,17.649 4.95,31.817 14.94,42.5 9.94,10.715 23.1,16.086 39.31,16.086 15.06,0 27.21,-5.09 36.5,-15.246 9.23,-10.183 13.89,-23.652 13.89,-40.437 v -0.52 h -90.96 v -1.375 c 0,-15.168 4.13,-27.4726 12.28,-36.8476 8.09,-9.414 18.68,-14.082 31.6,-14.082 7.76,0 15.21,1.3789 22.35,4.0938 7.1,2.7343 14.66,7.0312 22.46,12.9296 v -14.246" /><path
             id="path132"
             style="fill:#231f20;fill-opacity:1;fill-rule:nonzero;stroke:none"
             d="m 2706.48,87.2969 c 0,-7.8164 1.05,-12.9727 3.19,-15.4727 2.14,-2.5273 5.98,-3.8086 11.47,-3.8086 2.88,0 5.92,0.5 8.99,1.4766 3.08,0.957 6.55,2.4414 10.45,4.4531 v -12.707 c -3.65,-1.5821 -7.19,-2.793 -10.66,-3.6094 -3.5,-0.8047 -7,-1.1836 -10.54,-1.1836 -9.67,0 -16.48,2.293 -20.42,6.9141 -3.96,4.6172 -5.95,12.664 -5.95,24.1797 v 76.6599 h -24.77 v 10.789 h 25.33 v 26.555 l 9.85,11.348 h 3.06 v -37.903 h 31.16 v -10.789 h -31.16 V 87.2969" /><path
             id="path134"
             style="fill:#231f20;fill-opacity:1;fill-rule:evenodd;stroke:none"
             d="M 2767.88,58.7617 V 174.988 h 13.18 V 58.7617 h -13.18 z m 0,154.6253 v 21.371 h 13.18 v -21.371 h -13.18 v 0" /><path
             id="path136"
             style="fill:#231f20;fill-opacity:1;fill-rule:nonzero;stroke:none"
             d="M 2823.6,58.7617 V 174.988 h 12.91 v -18.601 c 5.61,6.972 11.77,12.148 18.49,15.566 6.67,3.418 13.98,5.098 21.89,5.098 13.19,0 23.38,-4.121 30.54,-12.317 7.11,-8.23 10.68,-19.91 10.68,-35.136 V 58.7617 h -12.91 v 64.6953 c 0,14.012 -2.47,24.441 -7.32,31.355 -4.96,6.934 -12.38,10.411 -22.31,10.411 -8.07,0 -15.34,-2.059 -21.85,-6.2 -6.5,-4.074 -12.21,-10.207 -17.21,-18.339 V 58.7617 h -12.91 v 0" /><path
             id="path138"
             style="fill:#231f20;fill-opacity:1;fill-rule:evenodd;stroke:none"
             d="m 2982.19,95.168 c -9.49,3.7187 -16.71,8.766 -21.58,15.348 -4.81,6.535 -7.26,14.281 -7.26,23.254 0,7.199 1.8,13.847 5.44,19.941 3.6,6.055 8.77,11.211 15.46,15.359 3.46,2.121 7.42,3.606 11.84,4.543 4.47,0.938 11.46,1.375 20.96,1.375 h 43.39 v -11.093 h -24.85 c 4.82,-4.43 8.37,-9.083 10.63,-13.946 2.23,-4.832 3.41,-10.242 3.41,-16.179 0,-10.391 -3.05,-18.965 -9.15,-25.657 -6.09,-6.707 -15.58,-11.8825 -28.47,-15.5857 -2.01,-0.5937 -4.88,-1.3554 -8.61,-2.2734 -13.42,-3.3789 -20.18,-8.0977 -20.18,-14.2461 0,-5.6953 9.23,-9.4375 27.79,-11.1953 0.56,-0.0937 1.06,-0.1367 1.4,-0.1367 18.12,-1.7383 30.53,-4.9297 37.28,-9.5313 6.63,-4.6757 9.99,-11.8437 9.99,-21.6601 0,-11.2461 -4.41,-19.6328 -13.22,-25.19534 C 3027.62,2.76953 3014.17,0 2996.2,0 c -16.13,0 -28.5,2.66016 -36.99,7.98828 -8.57,5.30082 -12.87,13.01172 -12.87,22.96092 0,7.5586 2.81,13.8477 8.29,18.961 5.54,5.0586 13.15,8.2539 22.9,9.6328 -5.11,1.1992 -8.97,3.1328 -11.76,5.9726 -2.76,2.793 -4.18,6.2305 -4.18,10.2774 0,4.3515 1.83,8.1992 5.44,11.6172 3.55,3.3984 8.61,5.9765 15.16,7.7578 z m -15.93,38.316 c 0,-8.269 3,-15.32 8.87,-21.148 5.9,-5.844 13.14,-8.734 21.58,-8.734 8.41,0 15.51,2.929 21.44,8.808 5.86,5.832 8.78,12.988 8.78,21.36 0,8.347 -2.92,15.507 -8.78,21.335 -5.93,5.864 -13.03,8.79 -21.44,8.79 -8.33,0 -15.58,-2.95 -21.51,-8.907 -5.94,-5.937 -8.94,-13.101 -8.94,-21.504 z m 31.5,-80.3981 c -13.25,0 -23.15,-1.8164 -29.62,-5.5586 -6.44,-3.6718 -9.63,-9.2656 -9.63,-16.8359 0,-6.3711 3.38,-11.3125 10.05,-14.8711 6.68,-3.4805 16.08,-5.25 28.21,-5.25 13.35,0 23.38,1.8399 30.24,5.6094 6.87,3.7187 10.29,9.2617 10.29,16.543 0,6.875 -3.24,11.9961 -9.68,15.3515 -6.4,3.332 -16.39,5.0117 -29.86,5.0117 v 0" /><path
             id="path140"
             style="fill:#231f20;fill-opacity:1;fill-rule:nonzero;stroke:none"
             d="M 0,854.75 H 131.594 V 986.324 L 0,986.324 Z" /><path
             id="path142"
             style="fill:#231f20;fill-opacity:1;fill-rule:nonzero;stroke:none"
             d="m 2306.7,938.09 h 46.582 v 49.8281 H 2306.7 Z" /><path
             id="path144"
             style="fill:#fdd91c;fill-opacity:1;fill-rule:evenodd;stroke:none"
             d="M 3077.82,1031.24 4147.81,973.914 4001.15,48.5352 2899.49,387.988 3077.82,1031.24" /><path
             id="path146"
             style="fill:#231f20;fill-opacity:1;fill-rule:nonzero;stroke:none"
             d="m 3226.66,978.492 44.59,32.788 -39.6,1.46 -44.64,-32.349 z m 396.95,-22.578 44.11,37.219 -39.68,2.101 -44.16,-36.761 z m -158.87,9.828 44.3,35.428 -39.62,1.84 -44.38,-34.967 z m -158.77,8.774 44.52,33.624 -39.62,1.6 -44.54,-33.209 z m 79.39,-4.258 44.39,34.532 -39.62,1.71 -44.45,-34.102 z m 158.81,-9.293 44.21,36.308 -39.68,1.981 -44.24,-35.867 z m 477.01,-34.563 43.63,41.918 -39.72,2.797 -43.68,-41.441 z m -79.57,6.493 43.72,40.96 -39.72,2.657 -43.76,-40.477 z m -159.05,12.089 43.92,39.063 -39.68,2.379 -43.96,-38.625 z m 79.52,-5.894 43.8,40 -39.67,2.515 -43.88,-39.539 z m -159.01,11.512 44.01,38.117 -39.69,2.261 -44.05,-37.683 z m -636.35,-110.739 -33.96,-21.355 -9.81,-34.988 34.03,20.898 z m -97.97,-349.14 -34.46,-17.004 -9.84,-33.867 34.46,16.582 z m 178.62,491.504 44.68,31.913 -39.58,1.36 -44.76,-31.496 z M 3008,629.008 l -34.26,-18.738 -9.83,-34.309 34.29,18.301 z m -59.88,-211.313 -0.32,0.078 0.3,-0.078 z m 33.33,-9.629 -33.35,9.629 -3.27,-0.285 2.97,0.363 1.31,4.5 -34.55,-16.171 -3.64,-12.422 24.76,-7.196 z m 6.93,151.571 -34.34,-17.883 -9.86,-34.07 34.39,17.429 z m 58.8,209.48 -34.08,-20.504 -9.81,-34.746 34.11,20.063 z m 58.65,213.567 -33.8,-23.094 -9.8,-35.445 33.83,22.675 z m -17.85,34.866 -6.15,-22.394 31.04,21.644 z m -1.67,-106.495 -33.91,-22.254 -9.81,-35.188 33.93,21.797 z m 1042.4,-6.535 -37.08,-35.864 -8.28,-50.008 37.12,35.282 z M 3027.6,698.844 l -34.16,-19.621 -9.83,-34.528 34.21,19.184 z m 432.5,-429.11 -40.8,11.789 -46.83,-26.847 40.01,-12.43 z m 164.56,-47.527 -41.33,11.926 -46.78,-28.891 40.68,-12.43 z m 83.07,-24.023 -41.62,12.031 -46.84,-29.856 41.02,-12.761 z m -165.65,47.863 -41.01,11.863 -46.9,-28.113 40.02,-12.113 z m -163.43,47.223 -40.48,11.71 -47.82,-26.035 40.74,-11.886 z m 721.36,626.418 -0.11,-0.899 37.04,36.406 1.28,7.793 -33.64,2.457 -43.61,-42.398 z M 3140,362.246 l -39.43,11.395 -48.89,-22.461 40.35,-12.11 z m 157.87,-45.637 -40.19,11.633 -46.95,-24.797 40,-12.449 z m -323.2,58.11 38.68,-11.77 46.13,22.559 -39.12,11.308 z m 1137.61,428.781 -37.2,-34.727 -8.27,-49.769 37.2,34.164 z m -894.37,-463.773 -39.01,11.269 -47.2,-23.691 39.68,-12.11 z m 828.39,64.324 -37.55,-30.25 -8.32,-48.879 37.6,29.676 z m 16.51,99.14 -37.44,-31.347 -8.31,-49.071 37.52,30.789 z m 16.5,99.645 -37.36,-32.469 -8.31,-49.312 37.44,31.91 z m 16.51,100.102 -37.28,-33.606 -8.32,-49.531 37.36,33.027 z M 3804.74,354.277 c -7.03,-16.465 -20.42,-24.336 -33.56,-21.941 -10.07,1.773 -15.27,9.773 -13.2,22.476 4.49,27.454 24.07,49.055 41.89,46.7 10.31,-1.407 16.1,-9.336 15.58,-22.059 z m 32.25,-23.437 35.24,83.625 -33.89,4.527 -8.62,-10.406 c -4.79,10.691 -14.59,17.32 -28.7,19.004 -39.35,4.39 -75.25,-23.742 -82.21,-65.844 -4.85,-29.285 9.02,-46.836 40.85,-52.93 17.47,-3.472 30.5,0.305 43.61,11.977 -0.53,-14.211 9.07,-22.941 29.36,-27.258 16.31,-3.555 33.14,-2.023 48.2,5.598 26.62,13.445 44.04,39.058 48.99,72.469 9.39,63.699 -32.49,114.488 -105.58,120.761 -46.91,3.297 -90.59,-11.449 -123.44,-39.679 -23.71,-19.61 -38.72,-44.5 -43.63,-73.055 -5.53,-32.188 4.12,-59.902 28.38,-83.992 20.68,-21.321 50.86,-37.805 86.34,-46.172 38.01,-9.336 72.26,-7.16 106.03,7.488 l -12.59,25.891 c -26.94,-11.25 -55.79,-13.403 -85.84,-6.614 -62.97,13.426 -97.56,51.875 -89.45,99.844 5.26,31.309 26.31,57.805 58.08,73.633 20.69,10.508 45.03,15.039 72.05,12.551 54.94,-5.676 84.72,-41.242 78.04,-85.824 -5.75,-37.989 -34.56,-62.176 -56.91,-57.684 -4.27,0.859 -6.19,3.816 -5.55,8.016 0.24,1.398 0.76,2.714 1.24,4.074 z m 192.77,-25.559 -37.68,-29.09 -8.32,-48.613 37.73,28.535 z m -154.48,-155.508 -42.08,12.153 -47.84,-31.996 42.04,-12.762 z m -84.01,24.278 -41.87,12.09 -47.38,-30.996 41.66,-12.762 z m 205.37,-64.813 -42.45,-30.4099 35.45,-10.7539 z m -36.93,16.145 -42.27,12.207 -48,-33.215 43.04,-12.7656 z m 53.51,81.637 -37.77,-27.958 -8.31,-48.386 37.77,27.39 z M 4138.94,917.852 4001.15,48.5352 2938.07,376.094 l -4.75,-18.899 1089.37,-341.4958 138.26,900.2738 -22.01,1.879" /></g></g></g></g></svg>